<svg width="24" height="25" viewBox="0 0 24 25" fill="none" xmlns="http://www.w3.org/2000/svg">
<rect y="0.119629" width="24" height="24" rx="12" fill="white"/>
<g clip-path="url(#clip0_544_1299)">
<path d="M16 5.61963C16.275 5.61963 16.5 5.84463 16.5 6.11963V18.1196C16.5 18.3946 16.275 18.6196 16 18.6196H7C6.725 18.6196 6.5 18.3946 6.5 18.1196V6.11963C6.5 5.84463 6.725 5.61963 7 5.61963H16ZM7 4.11963C5.89688 4.11963 5 5.0165 5 6.11963V18.1196C5 19.2228 5.89688 20.1196 7 20.1196H16C17.1031 20.1196 18 19.2228 18 18.1196V6.11963C18 5.0165 17.1031 4.11963 16 4.11963H7ZM11.5 12.1196C12.0304 12.1196 12.5391 11.9089 12.9142 11.5338C13.2893 11.1588 13.5 10.6501 13.5 10.1196C13.5 9.5892 13.2893 9.08049 12.9142 8.70542C12.5391 8.33034 12.0304 8.11963 11.5 8.11963C10.9696 8.11963 10.4609 8.33034 10.0858 8.70542C9.71071 9.08049 9.5 9.5892 9.5 10.1196C9.5 10.6501 9.71071 11.1588 10.0858 11.5338C10.4609 11.9089 10.9696 12.1196 11.5 12.1196ZM10.5 13.1196C9.11875 13.1196 8 14.2384 8 15.6196C8 15.8946 8.225 16.1196 8.5 16.1196H14.5C14.775 16.1196 15 15.8946 15 15.6196C15 14.2384 13.8813 13.1196 12.5 13.1196H10.5ZM20 6.61963C20 6.34463 19.775 6.11963 19.5 6.11963C19.225 6.11963 19 6.34463 19 6.61963V8.61963C19 8.89463 19.225 9.11963 19.5 9.11963C19.775 9.11963 20 8.89463 20 8.61963V6.61963ZM19.5 10.1196C19.225 10.1196 19 10.3446 19 10.6196V12.6196C19 12.8946 19.225 13.1196 19.5 13.1196C19.775 13.1196 20 12.8946 20 12.6196V10.6196C20 10.3446 19.775 10.1196 19.5 10.1196ZM20 14.6196C20 14.3446 19.775 14.1196 19.5 14.1196C19.225 14.1196 19 14.3446 19 14.6196V16.6196C19 16.8946 19.225 17.1196 19.5 17.1196C19.775 17.1196 20 16.8946 20 16.6196V14.6196Z" fill="#0056A6"/>
</g>
<defs>
<clipPath id="clip0_544_1299">
<rect width="16" height="16" fill="white" transform="translate(4 4.11963)"/>
</clipPath>
</defs>
</svg>
