<svg width="19" height="20" viewBox="0 0 19 20" fill="none" xmlns="http://www.w3.org/2000/svg">
<rect x="0.5" y="3.29419" width="16" height="16" rx="2" fill="#FFC107" fill-opacity="0.1"/>
<g clip-path="url(#clip0_196_3170)">
<path d="M13.5 3C14.0531 3 14.5 3.44687 14.5 4V5.11562C14.55 5.12187 14.5969 5.12812 14.6469 5.1375C14.6594 5.14062 14.6688 5.14062 14.6813 5.14375L16.1813 5.41875C16.725 5.51875 17.0844 6.04063 16.9844 6.58125C16.8844 7.12187 16.3625 7.48438 15.8219 7.38438L14.3375 7.1125C13.3594 6.96875 12.4969 7.06563 11.8906 7.30625C11.2844 7.54688 11.0406 7.87812 10.9844 8.18437C10.9219 8.51875 10.9688 8.70625 11.0219 8.82188C11.0781 8.94375 11.1938 9.08125 11.4219 9.23438C11.9313 9.56875 12.7125 9.7875 13.725 10.0563L13.8156 10.0813C14.7094 10.3188 15.8031 10.6062 16.6156 11.1375C17.0594 11.4281 17.4781 11.8219 17.7375 12.3719C18.0031 12.9312 18.0594 13.5563 17.9375 14.2219C17.7219 15.4094 16.9031 16.2031 15.8875 16.6187C15.4594 16.7937 14.9938 16.9062 14.5 16.9625V18.0063C14.5 18.5594 14.0531 19.0063 13.5 19.0063C12.9469 19.0063 12.5 18.5594 12.5 18.0063V16.9156C12.4875 16.9125 12.4719 16.9125 12.4594 16.9094H12.4531C11.6906 16.7906 10.4375 16.4625 9.59376 16.0875C9.09064 15.8625 8.86251 15.2719 9.08751 14.7688C9.31251 14.2656 9.90314 14.0375 10.4063 14.2625C11.0594 14.5531 12.1344 14.8406 12.7563 14.9375C13.7531 15.0844 14.575 15 15.1313 14.7719C15.6594 14.5563 15.9 14.2437 15.9688 13.8687C16.0281 13.5375 15.9813 13.3469 15.9281 13.2312C15.8688 13.1062 15.7531 12.9688 15.5219 12.8156C15.0094 12.4812 14.225 12.2625 13.2094 11.9937L13.1219 11.9719C12.2313 11.7281 11.1375 11.4375 10.325 10.9062C9.88126 10.6156 9.46564 10.2188 9.20626 9.66875C8.94376 9.10938 8.89064 8.48438 9.01564 7.81875C9.24064 6.625 10.1344 5.85 11.15 5.44688C11.5656 5.28125 12.0219 5.16875 12.5 5.10313V4C12.5 3.44687 12.9469 3 13.5 3Z" fill="#FFC107"/>
</g>
<defs>
<clipPath id="clip0_196_3170">
<rect width="10" height="16" fill="white" transform="translate(8.5 0.294189)"/>
</clipPath>
</defs>
</svg>
