<svg width="24" height="25" viewBox="0 0 24 25" fill="none" xmlns="http://www.w3.org/2000/svg">
<rect y="0.119629" width="24" height="24" rx="12" fill="white"/>
<g clip-path="url(#clip0_544_1293)">
<path d="M12.5401 4.6423C7.97255 4.3198 4.20005 8.0923 4.52255 12.6598C4.79255 16.6273 8.25755 19.6198 12.2326 19.6198H15.0001C15.4126 19.6198 15.7501 19.2823 15.7501 18.8698C15.7501 18.4573 15.4126 18.1198 15.0001 18.1198H12.2476C9.45005 18.1198 6.88505 16.3048 6.18755 13.5973C5.07005 9.2473 9.12005 5.1898 13.4701 6.3148C16.1851 7.0048 18.0001 9.5698 18.0001 12.3673V13.1923C18.0001 13.7848 17.4676 14.3698 16.8751 14.3698C16.2826 14.3698 15.7501 13.7848 15.7501 13.1923V12.2548C15.7501 10.3723 14.4151 8.6773 12.5551 8.4148C10.0051 8.0473 7.85255 10.2523 8.31005 12.8173C8.56505 14.2498 9.68255 15.4348 11.1001 15.7723C12.4801 16.0948 13.7926 15.6523 14.6551 14.7748C15.3226 15.6898 16.6576 16.1698 17.8801 15.6823C18.8851 15.2848 19.5001 14.2573 19.5001 13.1773V12.3598C19.5001 8.3773 16.5076 4.9123 12.5401 4.6423ZM12.0001 14.3698C10.7551 14.3698 9.75005 13.3648 9.75005 12.1198C9.75005 10.8748 10.7551 9.8698 12.0001 9.8698C13.2451 9.8698 14.2501 10.8748 14.2501 12.1198C14.2501 13.3648 13.2451 14.3698 12.0001 14.3698Z" fill="#0056A6"/>
</g>
<defs>
<clipPath id="clip0_544_1293">
<rect width="18" height="18" fill="white" transform="translate(3 3.11963)"/>
</clipPath>
</defs>
</svg>
