<svg width="25" height="24" viewBox="0 0 25 24" fill="none" xmlns="http://www.w3.org/2000/svg">
<rect x="0.5" width="24" height="24" rx="12" fill="#0056A6"/>
<g clip-path="url(#clip0_533_1892)">
<path d="M13.04 4.52251C8.47249 4.20001 4.69999 7.97251 5.02249 12.54C5.29249 16.5075 8.75749 19.5 12.7325 19.5H15.5C15.9125 19.5 16.25 19.1625 16.25 18.75C16.25 18.3375 15.9125 18 15.5 18H12.7475C9.94999 18 7.38499 16.185 6.68749 13.4775C5.56999 9.12751 9.61999 5.07001 13.97 6.19501C16.685 6.88501 18.5 9.45001 18.5 12.2475V13.0725C18.5 13.665 17.9675 14.25 17.375 14.25C16.7825 14.25 16.25 13.665 16.25 13.0725V12.135C16.25 10.2525 14.915 8.55751 13.055 8.29501C10.505 7.92751 8.35249 10.1325 8.80999 12.6975C9.06499 14.13 10.1825 15.315 11.6 15.6525C12.98 15.975 14.2925 15.5325 15.155 14.655C15.8225 15.57 17.1575 16.05 18.38 15.5625C19.385 15.165 20 14.1375 20 13.0575V12.24C20 8.2575 17.0075 4.79251 13.04 4.52251ZM12.5 14.25C11.255 14.25 10.25 13.245 10.25 12C10.25 10.755 11.255 9.75001 12.5 9.75001C13.745 9.75001 14.75 10.755 14.75 12C14.75 13.245 13.745 14.25 12.5 14.25Z" fill="white"/>
</g>
<defs>
<clipPath id="clip0_533_1892">
<rect width="18" height="18" fill="white" transform="translate(3.5 3)"/>
</clipPath>
</defs>
</svg>
