<svg width="25" height="24" viewBox="0 0 25 24" fill="none" xmlns="http://www.w3.org/2000/svg">
<rect x="0.5" width="24" height="24" rx="12" fill="#0056A6"/>
<g clip-path="url(#clip0_533_1900)">
<path d="M20 12C20 7.86 16.64 4.5 12.5 4.5C8.36 4.5 5 7.86 5 12C5 15.63 7.58 18.6525 11 19.35V14.25H9.5V12H11V10.125C11 8.6775 12.1775 7.5 13.625 7.5H15.5V9.75H14C13.5875 9.75 13.25 10.0875 13.25 10.5V12H15.5V14.25H13.25V19.4625C17.0375 19.0875 20 15.8925 20 12Z" fill="white"/>
</g>
<defs>
<clipPath id="clip0_533_1900">
<rect width="18" height="18" fill="white" transform="translate(3.5 3)"/>
</clipPath>
</defs>
</svg>
