<svg width="21" height="20" viewBox="0 0 21 20" fill="none" xmlns="http://www.w3.org/2000/svg">
<rect x="0.5" y="3.29419" width="16" height="16" rx="2" fill="#FFC107" fill-opacity="0.1"/>
<g clip-path="url(#clip0_196_3161)">
<path d="M9.75 4.5V4.25H9.5H9.25C8.97245 4.25 8.75 4.02755 8.75 3.75C8.75 3.47245 8.97245 3.25 9.25 3.25H19.75C20.0276 3.25 20.25 3.47245 20.25 3.75C20.25 4.02755 20.0276 4.25 19.75 4.25H19.5H19.25V4.5V5.09375C19.25 6.2869 18.7763 7.43248 17.9298 8.27604L17.9295 8.27635L15.3826 10.8232L15.2057 11.0001L15.3827 11.1769L17.9326 13.7237C18.7763 14.5673 19.25 15.7131 19.25 16.9062V17.5V17.75H19.5H19.75C20.0276 17.75 20.25 17.9724 20.25 18.25C20.25 18.5276 20.0276 18.75 19.75 18.75H9.25C8.97245 18.75 8.75 18.5276 8.75 18.25C8.75 17.9724 8.97245 17.75 9.25 17.75H9.5H9.75V17.5V16.9062C9.75 15.7131 10.2237 14.5673 11.0674 13.7237L13.6173 11.1769L13.7944 11L13.6173 10.8231L11.0674 8.27635C10.2237 7.43269 9.75 6.28694 9.75 5.09375V4.5ZM14.6768 11.8826L14.4999 11.7057L14.3231 11.8827L11.7763 14.4326C11.1204 15.0886 10.75 15.9771 10.75 16.9062V17.5V17.75H11H18H18.25V17.5V16.9062C18.25 15.977 17.8796 15.0888 17.2241 14.4299L17.2237 14.4295L14.6768 11.8826ZM11.7763 7.5674L14.25 10.0411V10.5447L14.6769 10.1173L17.2237 7.5674C17.8796 6.9114 18.25 6.02292 18.25 5.09375V4.5V4.25H18H11H10.75V4.5V5.09375C10.75 6.02292 11.1204 6.9114 11.7763 7.5674Z" stroke="#FFC107" stroke-width="0.5"/>
</g>
<defs>
<clipPath id="clip0_196_3161">
<rect width="12" height="16" fill="white" transform="translate(8.5 0.294189)"/>
</clipPath>
</defs>
</svg>
