<svg width="201" height="38" viewBox="0 0 201 38" fill="none" xmlns="http://www.w3.org/2000/svg">
<circle cx="18.3532" cy="19" r="18.3532" fill="white"/>
<g clip-path="url(#clip0_534_1913)">
<path d="M24.9264 13.1417C24.6836 13.1925 24.4557 13.3028 24.2684 13.4676L23.6872 13.9745C22.3474 11.9799 20.5607 9.80935 18.2534 7.35633C14.9106 10.9131 12.6548 13.8753 11.2807 16.5686C10.9837 15.9837 10.755 15.3533 10.6239 14.6632C10.844 14.2865 11.0794 13.9049 11.3296 13.521C12.8157 11.2375 14.8424 8.77599 17.7098 5.77418L18.2534 5.20426L18.797 5.77418C21.5071 8.61114 23.4659 10.965 24.9267 13.1417H24.9264Z" fill="#0056A6"/>
<path d="M28.2681 20.9686C28.2049 20.5691 28.1227 20.1681 28.0241 19.7657L26.7394 20.883C26.7591 20.9897 26.7778 21.0965 26.7945 21.203L26.7984 21.2235C26.8499 21.5027 26.888 21.7867 26.9119 22.0712C26.9208 22.1762 26.9276 22.2815 26.9327 22.3865C26.9387 22.5173 26.9416 22.649 26.9416 22.7798C26.9416 23.201 26.9104 23.6158 26.8499 24.0206C26.8207 24.2212 26.7841 24.4189 26.7403 24.614C26.6351 25.0888 26.4895 25.549 26.3057 25.9908C26.2205 26.1996 26.1267 26.4047 26.0236 26.6047C26.023 26.6068 26.0221 26.6091 26.0206 26.6114L25.6816 27.2142C24.1556 29.6828 21.3964 31.3353 18.2535 31.3353C17.2181 31.3353 16.225 31.1555 15.3034 30.8267L14.0556 31.9117C15.3364 32.4848 16.7573 32.8054 18.2535 32.8054C22.2885 32.8054 25.7832 30.4818 27.4293 27.1224L27.7024 26.5138C27.9616 25.8817 28.1564 25.2179 28.2794 24.5304C28.3146 24.3332 28.3443 24.135 28.3676 23.934C28.381 23.8208 28.3923 23.707 28.4012 23.5923C28.4236 23.3248 28.4349 23.0535 28.4349 22.7801C28.4349 22.6206 28.431 22.4619 28.423 22.3023C28.4021 21.8547 28.3497 21.4077 28.2684 20.9689L28.2681 20.9686Z" fill="#0056A6"/>
<path d="M12.3855 29.0827L11.5753 29.8271L11.5526 29.8518C11.4758 29.9398 11.4094 30.0377 11.354 30.143C9.47049 28.4309 8.24265 26.0313 8.08925 23.3516C8.07793 23.1621 8.07167 22.9726 8.07167 22.7805V22.762C8.07167 22.7532 8.07167 22.7447 8.07286 22.7347C8.07286 22.5341 8.08031 22.3332 8.09431 22.1325C8.10682 21.9307 8.12588 21.7298 8.15091 21.5318C8.17474 21.3423 8.20512 21.1552 8.23908 20.9681C8.24027 20.9581 8.24146 20.9481 8.24414 20.9384C8.24801 20.9112 8.25308 20.8827 8.25784 20.8554C8.62899 21.4834 9.06419 22.1105 9.56492 22.7347V22.7805C9.56492 25.2719 10.6531 27.5178 12.3855 29.0827Z" fill="#0056A6"/>
<path d="M20.6159 20.2287C20.803 20.3202 21.0052 20.1169 20.915 19.9621C21.1205 20.0489 21.3079 19.8576 21.2138 19.6954C21.3743 19.7617 21.5828 19.5992 21.4857 19.4045C21.6174 19.2429 22.2 18.7407 22.2 18.7407L21.6671 18.0332C21.5459 17.8596 21.2462 17.9455 21.3189 18.2089C21.1735 18.0948 20.912 18.2752 21.0201 18.4755C20.8739 18.3438 20.6129 18.4846 20.694 18.6955C20.5263 18.587 20.3026 18.7738 20.3952 18.9621C20.2063 18.8419 19.9975 19.0199 20.0964 19.2288C19.9502 19.1094 19.7077 19.2742 19.806 19.4904C19.5269 19.9016 20.0827 20.5842 20.6168 20.2287H20.6159Z" fill="#FFC107"/>
<path d="M23.1119 18.4234C23.2671 18.5625 23.3737 18.5989 23.4654 18.5417C23.5164 18.5114 23.6778 18.3668 23.7395 18.3184C23.7624 18.2991 23.7496 18.2747 23.7303 18.2747C23.7079 18.2753 23.6835 18.2721 23.6743 18.2703C23.5667 18.2516 23.4505 18.1439 23.0836 17.6485L23.0815 17.6497C22.6439 17.0845 22.5179 16.8571 22.5262 16.6858C22.5328 16.6348 22.4896 16.5943 22.4294 16.6515C22.3514 16.7216 22.2582 16.8049 22.1947 16.8618C22.1047 16.9393 22.1202 17.0663 22.24 17.2886C22.3865 17.5722 22.8792 18.1891 23.1119 18.4232V18.4234Z" fill="#FFC107"/>
<path d="M22.6068 18.859C22.7644 18.9954 22.8716 19.0303 22.9622 18.9716C23.0125 18.9405 23.1719 18.7933 23.2326 18.744C23.2553 18.7243 23.2419 18.7003 23.2225 18.7006C23.2002 18.7015 23.1757 18.6988 23.1662 18.6973C23.0584 18.6803 22.9404 18.5744 22.5654 18.0852L22.5633 18.0864C22.1165 17.5282 21.9866 17.3029 21.9923 17.1313C21.9979 17.08 21.9541 17.0404 21.8949 17.0985C21.818 17.1697 21.7263 17.2548 21.6637 17.3126C21.575 17.3915 21.5925 17.5182 21.7161 17.7388C21.8672 18.0201 22.37 18.6287 22.6068 18.8593V18.859Z" fill="#FFC107"/>
<path d="M29.2409 17.3946L29.0011 17.4274L29.0571 17.1834L28.8173 17.2162L28.8733 16.9722L28.6336 17.005L28.6896 16.761L28.4498 16.7939L28.5058 16.5498L28.266 16.5827L28.322 16.3386L28.0822 16.3715L28.1382 16.1274L27.8984 16.1603L27.9544 15.9163L27.7146 15.9491L27.1555 16.3885L28.798 18.3203L29.3675 17.851L29.4235 17.6069L29.1837 17.6398L29.2397 17.3957L29.2409 17.3946Z" fill="#FFC107"/>
<path d="M21.8967 24.2836L20.7255 23.8859L19.6296 23.4608C19.6108 23.4535 19.5932 23.4459 19.5742 23.4386C19.5652 23.4347 19.5578 23.4312 19.5504 23.4286C19.0571 23.2241 18.6597 22.9839 18.3374 22.7161L18.2972 22.6976C18.5036 22.6073 18.7765 22.5712 19.1363 22.6184L19.2194 22.6668C19.2698 22.6929 19.3201 22.7164 19.3704 22.7399C19.3716 22.7399 19.3728 22.741 19.3743 22.741C19.8473 22.927 20.377 22.7783 20.6552 22.2975C20.7281 22.1576 20.7067 21.9283 20.4678 21.818C20.1381 21.7077 19.8074 21.5379 19.4777 21.3088C19.2525 21.1677 19.0172 21.0636 18.7732 20.999C18.1605 20.8354 17.4899 20.9148 16.7628 21.2381C16.3979 21.3534 16.042 21.5293 15.6958 21.7646L15.7009 21.7669C15.0932 21.7347 14.2604 21.0944 12.9331 19.8046C10.6874 17.4643 9.27306 15.0039 10.0985 11.2738C8.02467 12.6679 7.25466 14.6736 7.41432 16.7797C7.77297 19.2635 9.22868 21.7476 11.7812 24.2314C12.0591 24.4977 12.326 24.7467 12.5762 24.9723C12.6253 25.0169 12.6742 25.0615 12.7245 25.1061C12.7359 25.116 12.746 25.1245 12.7573 25.1345C12.8553 25.2213 12.9548 25.3079 13.0555 25.3947C13.2694 25.7528 13.3525 25.8854 13.5991 26.2125L13.6003 26.2136C13.7111 26.3612 13.8267 26.5023 13.9512 26.6348L13.9437 26.6325C13.9551 26.6425 13.9676 26.6536 13.9789 26.6636C14.1073 26.7985 14.2455 26.9249 14.3941 27.0402C14.5955 27.205 14.8118 27.3538 15.0498 27.4925C15.4346 27.7427 15.8299 27.9533 16.235 28.122C16.6678 28.2941 17.1584 28.464 17.7235 28.6485C17.7586 28.6508 17.7953 28.6534 17.8304 28.6546H17.8328C18.6695 28.6719 18.682 27.7911 18.136 27.6227H18.1348L16.893 27.1147L16.927 27.0613L16.9571 26.9918L17.8641 27.3523C18.0351 27.4253 18.2013 27.4972 18.3624 27.5702L19.3853 27.9046C20.2498 28.0322 20.4863 27.0596 19.8432 26.8182L18.814 26.4204L17.854 26.0016C17.8376 25.9942 17.8212 25.9866 17.8048 25.9793C17.7974 25.9769 17.7896 25.9731 17.7834 25.9693C17.6854 25.9247 17.5933 25.8775 17.5039 25.8294L18.8855 26.3163C19.0779 26.3882 19.2641 26.46 19.4455 26.5342L20.5905 26.8563C21.5506 26.9578 21.7656 25.874 21.0448 25.6361L19.8911 25.2445L18.8116 24.8256C18.7929 24.8183 18.7738 24.8107 18.7562 24.8034C18.7488 24.7995 18.7398 24.796 18.7324 24.7934C18.4014 24.6558 18.1158 24.5021 17.8668 24.3361L17.8691 24.3261L19.7046 24.9729C19.9009 25.0459 20.0895 25.119 20.2733 25.1946L21.4344 25.5205C22.4082 25.6246 22.6271 24.5244 21.8961 24.283L21.8967 24.2836Z" fill="#FFC107"/>
<path d="M13.5116 31.3611L13.2563 31.5518C12.9995 31.7251 12.5051 31.6336 12.1983 31.2074C12.6424 31.5655 13.0174 31.5245 13.3847 31.1875L16.0971 28.7371C16.0644 28.7236 16.0316 28.711 16.0003 28.6987C15.5601 28.5153 15.1323 28.2886 14.7171 28.0196C14.6644 27.9885 14.6113 27.9577 14.561 27.9255L12.0273 30.2547C11.7896 30.5272 11.6561 31.0041 12.1432 31.4922C12.4878 31.8204 13.0326 31.968 13.2894 31.7486L16.5568 28.9078C16.4814 28.8805 16.4084 28.8544 16.3378 28.8286L13.5122 31.3608L13.5116 31.3611ZM12.5492 30.634L13.2977 29.9165C13.6135 29.722 14.0615 30.2139 13.8398 30.5026L13.0812 31.1778C12.8181 31.4118 12.2811 30.8842 12.5489 30.634H12.5492Z" fill="#FFC107"/>
<path d="M29.8912 12.876C29.0834 12.2242 28.14 12.1934 27.4391 12.7038L25.8651 14.0493L25.8425 14.0208C25.5533 13.6703 25.026 13.6281 24.6826 13.9278L23.1262 15.2868C22.7941 15.578 22.7172 16.0585 22.9439 16.4366L22.9853 16.5061C23.0318 16.5779 23.1187 16.6956 23.1187 16.6956L23.0368 16.7636C22.9123 16.6114 22.7524 16.734 22.8518 16.9123C22.9576 17.0895 23.2432 17.5207 23.5903 17.9096C23.7273 18.0607 23.8974 17.9518 23.7928 17.7858L23.7764 17.7647L23.8619 17.7052L24.0922 17.9926C24.1777 18.1003 24.1628 18.2551 24.057 18.3458L22.9385 19.2911C22.839 19.3741 22.6895 19.358 22.6126 19.2553C22.4869 19.0905 22.3258 18.8776 22.3258 18.8776C22.3258 18.8776 21.7646 19.3348 21.669 19.5044C21.352 20.0716 21.669 21.3177 21.3103 21.7377L21.2528 21.7975L20.1233 23.0039L20.9064 23.2929L20.9422 23.3066L21.789 23.5941L26.7323 19.128C26.8919 18.9521 26.858 18.635 26.6492 18.3502C27.0102 18.6115 27.1776 19.0192 26.975 19.2856L26.8014 19.4516L22.072 23.6897L22.1009 23.6997C22.2055 23.7343 22.3023 23.7804 22.3889 23.8361L28.6166 18.4209L26.9193 16.4251C26.8866 16.3805 26.8943 16.3198 26.9369 16.2852L27.4049 15.9048L27.4162 15.869L27.1859 15.5889C27.1356 15.5208 27.1657 15.4551 27.23 15.4179L28.448 14.5681C28.5526 14.4913 28.6127 14.479 28.7021 14.5582L28.7662 14.6324H28.765L28.7072 14.8764L28.9464 14.8453L28.8886 15.0894L29.129 15.0583L29.0712 15.3011L29.3116 15.27L29.2523 15.5141L29.4927 15.483L29.4349 15.727L29.6753 15.6959L29.6175 15.94L29.8579 15.9089L29.7986 16.1518L30.039 16.1207L29.9812 16.3647L30.2216 16.3336L30.1638 16.5777L30.403 16.5466L30.3452 16.7906L30.5856 16.7595L30.6773 16.6988C30.9806 16.4348 31.0863 16.316 31.2358 15.9356C31.4774 15.2703 30.9868 13.7105 29.8921 12.8754L29.8912 12.876Z" fill="#FFC107"/>
</g>
<g clip-path="url(#clip1_534_1913)">
<path d="M48.5421 28.1565L46.4975 9.88543C46.4843 9.77004 46.5757 9.66787 46.6923 9.66787H48.9339C49.9111 9.66787 50.7321 10.4011 50.8426 11.3723L52.1504 22.9472C52.1672 23.0986 52.3439 23.1743 52.4653 23.0806L57.3068 19.3581C57.3549 19.3208 57.3837 19.2632 57.3837 19.2031V11.2052C57.3837 10.3554 58.0725 9.66787 58.921 9.66787H60.022C60.8718 9.66787 61.5594 10.3566 61.5594 11.2052V19.2295C61.5594 19.2908 61.587 19.3473 61.6363 19.3846L66.4261 23.0806C66.5475 23.1743 66.7242 23.0998 66.741 22.9472L68.0716 11.3686C68.1834 10.3999 69.0031 9.66787 69.9791 9.66787H72.2232C72.3398 9.66787 72.4311 9.77004 72.4179 9.88543L70.3734 28.1553C70.3625 28.255 70.2784 28.3296 70.1786 28.3296H66.9261C66.8817 28.3296 66.8372 28.3139 66.8023 28.2863L59.5929 22.452C59.5208 22.3943 59.4187 22.3943 59.3465 22.452L52.1107 28.2863C52.0759 28.3139 52.0326 28.3296 51.9869 28.3296H48.7368C48.637 28.3296 48.5529 28.2538 48.5421 28.1553V28.1565Z" fill="white"/>
<path d="M75.5746 28.1337V9.86379C75.5746 9.75561 75.6623 9.66787 75.7705 9.66787H91.2085C93.1401 9.66787 94.6413 10.1547 95.7111 11.1295C96.7808 12.1043 97.3169 13.5827 97.3169 15.5671C97.3169 17.5516 96.782 19.03 95.7111 20.0048C94.6413 20.9796 93.1401 21.4664 91.2085 21.4664H79.9461C79.8379 21.4664 79.7502 21.5541 79.7502 21.6623V28.1349C79.7502 28.243 79.6624 28.3308 79.5543 28.3308H75.7705C75.6623 28.3308 75.5746 28.243 75.5746 28.1349V28.1337ZM90.7145 13.061H79.9485C79.8403 13.061 79.7526 13.1488 79.7526 13.2569V17.8496C79.7526 17.9578 79.8403 18.0456 79.9485 18.0456L90.7157 18.0708C91.4814 18.0708 92.0679 17.8797 92.4778 17.4963C92.8864 17.114 93.0908 16.4698 93.0908 15.5647C93.0908 14.6596 92.8864 13.9949 92.4778 13.6199C92.0691 13.2461 91.4814 13.0586 90.7157 13.0586L90.7145 13.061Z" fill="white"/>
<path d="M98.4905 21.402V20.0402C98.4905 19.587 98.8571 19.2204 99.3103 19.2204H105.658C106.111 19.2204 106.478 19.587 106.478 20.0402V21.402C106.478 21.8551 106.111 22.2217 105.658 22.2217H99.3103C98.8571 22.2217 98.4905 21.8551 98.4905 21.402Z" fill="white"/>
<path d="M109.349 28.1337V9.86379C109.349 9.75561 109.437 9.66787 109.545 9.66787H124.983C126.915 9.66787 128.416 10.1547 129.486 11.1295C130.556 12.1043 131.091 13.5827 131.091 15.5671C131.091 17.5516 130.556 19.03 129.486 20.0048C128.416 20.9796 126.915 21.4664 124.983 21.4664H113.721C113.613 21.4664 113.525 21.5541 113.525 21.6623V28.1349C113.525 28.243 113.437 28.3308 113.329 28.3308H109.545C109.437 28.3308 109.349 28.243 109.349 28.1349V28.1337ZM124.488 13.061H113.722C113.614 13.061 113.526 13.1488 113.526 13.2569V17.8496C113.526 17.9578 113.614 18.0456 113.722 18.0456L124.489 18.0708C125.255 18.0708 125.842 17.8797 126.251 17.4963C126.66 17.114 126.865 16.4698 126.865 15.5647C126.865 14.6596 126.66 13.9949 126.251 13.6199C125.843 13.2461 125.255 13.0586 124.489 13.0586L124.488 13.061Z" fill="white"/>
<path d="M133.311 28.1337V9.86379C133.311 9.75561 133.398 9.66787 133.506 9.66787H136.898C137.007 9.66787 137.094 9.75561 137.094 9.86379V28.1337C137.094 28.2418 137.007 28.3296 136.898 28.3296H133.506C133.398 28.3296 133.311 28.2418 133.311 28.1337Z" fill="white"/>
<path d="M144.247 28.3298C142.716 28.3298 141.598 27.9476 140.893 27.1819C140.188 26.4163 139.836 25.4247 139.836 24.2059V15.083C139.836 14.9748 139.924 14.887 140.032 14.887H143.424C143.532 14.887 143.62 14.9748 143.62 15.083V23.5652C143.62 24.5388 144.408 25.3273 145.382 25.3273H150.418C151.392 25.3273 152.18 24.5388 152.18 23.5652V15.083C152.18 14.9748 152.268 14.887 152.376 14.887H155.768C155.876 14.887 155.964 14.9748 155.964 15.083V24.2059C155.964 25.4247 155.612 26.4163 154.908 27.1819C154.203 27.9476 153.084 28.3298 151.553 28.3298H144.245H144.247Z" fill="white"/>
<path d="M158.709 28.1327V15.083C158.709 14.9748 158.796 14.887 158.905 14.887H176.118C177.649 14.887 178.772 15.2657 179.485 16.0229C180.197 16.7801 180.554 17.7766 180.554 19.011V28.1327C180.554 28.2409 180.467 28.3286 180.358 28.3286H176.966C176.858 28.3286 176.771 28.2409 176.771 28.1327V19.481C176.771 18.4196 176.231 17.8884 175.153 17.8884H171.721C171.613 17.8884 171.525 17.9761 171.525 18.0843V28.1327C171.525 28.2409 171.437 28.3286 171.329 28.3286H167.937C167.829 28.3286 167.741 28.2409 167.741 28.1327V18.0855C167.741 17.9773 167.654 17.8896 167.545 17.8896H162.692C162.584 17.8896 162.496 17.9773 162.496 18.0855V28.1339C162.496 28.2421 162.408 28.3298 162.3 28.3298H158.908C158.8 28.3298 158.712 28.2421 158.712 28.1339L158.709 28.1327Z" fill="white"/>
<path d="M198.41 16.6092C197.104 15.4613 195.286 14.8868 192.954 14.8868H187.277C187.169 14.8868 187.081 14.7991 187.081 14.6909V9.86379C187.081 9.75561 186.993 9.66787 186.885 9.66787H183.493C183.385 9.66787 183.297 9.75561 183.297 9.86379V28.1337C183.297 28.2418 183.385 28.3296 183.493 28.3296H192.955C195.287 28.3296 197.106 27.755 198.411 26.606C199.715 25.4581 200.368 23.7958 200.368 21.6214C200.368 19.4471 199.715 17.7583 198.411 16.6092H198.41ZM195.551 24.4003C194.95 25.0182 194.085 25.3271 192.954 25.3271H187.277C187.169 25.3271 187.081 25.2393 187.081 25.1311V18.0852C187.081 17.9771 187.169 17.8893 187.277 17.8893H192.954C194.085 17.8893 194.95 18.1982 195.551 18.816C196.151 19.4338 196.452 20.369 196.452 21.6226C196.452 22.8763 196.151 23.7849 195.551 24.4016V24.4003Z" fill="white"/>
</g>
<defs>
<clipPath id="clip0_534_1913">
<rect width="23.9018" height="27.6009" fill="white" transform="translate(7.4018 5.20007)"/>
</clipPath>
<clipPath id="clip1_534_1913">
<rect width="153.87" height="18.6629" fill="white" transform="translate(46.4947 9.66855)"/>
</clipPath>
</defs>
</svg>
