<svg width="25" height="24" viewBox="0 0 25 24" fill="none" xmlns="http://www.w3.org/2000/svg">
<rect x="0.5" width="24" height="24" rx="12" fill="#0056A6"/>
<g clip-path="url(#clip0_533_1886)">
<path d="M17.9225 14.445L16.0175 14.2275C15.56 14.175 15.11 14.3325 14.7875 14.655L13.4075 16.035C11.285 14.955 9.54501 13.2225 8.46501 11.0925L9.85251 9.705C10.175 9.3825 10.3325 8.9325 10.28 8.475L10.0625 6.585C9.97251 5.8275 9.33501 5.2575 8.57001 5.2575H7.27251C6.42501 5.2575 5.72001 5.9625 5.77251 6.81C6.17001 13.215 11.2925 18.33 17.69 18.7275C18.5375 18.78 19.2425 18.075 19.2425 17.2275V15.93C19.25 15.1725 18.68 14.535 17.9225 14.445Z" fill="white"/>
</g>
<defs>
<clipPath id="clip0_533_1886">
<rect width="18" height="18" fill="white" transform="translate(3.5 3)"/>
</clipPath>
</defs>
</svg>
