<svg width="24" height="25" viewBox="0 0 24 25" fill="none" xmlns="http://www.w3.org/2000/svg">
<rect y="0.119629" width="24" height="24" rx="12" fill="white"/>
<g clip-path="url(#clip0_544_1287)">
<path d="M17.4225 14.5645L15.5175 14.347C15.06 14.2945 14.61 14.452 14.2875 14.7745L12.9075 16.1545C10.785 15.0745 9.04503 13.342 7.96503 11.212L9.35253 9.82445C9.67503 9.50195 9.83253 9.05195 9.78003 8.59445L9.56253 6.70445C9.47253 5.94695 8.83503 5.37695 8.07003 5.37695H6.77253C5.92503 5.37695 5.22003 6.08195 5.27253 6.92945C5.67003 13.3345 10.7925 18.4495 17.19 18.847C18.0375 18.8995 18.7425 18.1945 18.7425 17.347V16.0495C18.75 15.292 18.18 14.6545 17.4225 14.5645Z" fill="#0056A6"/>
</g>
<defs>
<clipPath id="clip0_544_1287">
<rect width="18" height="18" fill="white" transform="translate(3 3.11963)"/>
</clipPath>
</defs>
</svg>
