<svg width="71" height="16" viewBox="0 0 71 16" fill="none" xmlns="http://www.w3.org/2000/svg">
<path d="M4.80711 3.48885C4.90954 3.17361 5.35552 3.17361 5.45795 3.48885L6.20803 5.79736C6.25384 5.93834 6.38522 6.0338 6.53345 6.0338H8.96077C9.29224 6.0338 9.43005 6.45795 9.16189 6.65278L7.19815 8.07952C7.07823 8.16666 7.02805 8.3211 7.07385 8.46208L7.82393 10.7706C7.92636 11.0858 7.56555 11.348 7.29739 11.1531L5.33365 9.72641C5.21373 9.63928 5.05133 9.63928 4.93141 9.72641L2.96767 11.1532C2.69951 11.348 2.3387 11.0858 2.44113 10.7706L3.19121 8.46208C3.23702 8.3211 3.18683 8.16666 3.06691 8.07952L1.10317 6.65278C0.835006 6.45795 0.972824 6.0338 1.30429 6.0338H3.73161C3.87984 6.0338 4.01122 5.93834 4.05703 5.79736L4.80711 3.48885Z" fill="#FFC107"/>
<path d="M15.0722 3.48885C15.1746 3.17361 15.6206 3.17361 15.723 3.48885L16.4731 5.79736C16.5189 5.93834 16.6503 6.0338 16.7985 6.0338H19.2258C19.5573 6.0338 19.6951 6.45795 19.427 6.65278L17.4632 8.07952C17.3433 8.16666 17.2931 8.3211 17.3389 8.46208L18.089 10.7706C18.1914 11.0858 17.8306 11.348 17.5625 11.1531L15.5987 9.72641C15.4788 9.63928 15.3164 9.63928 15.1965 9.72641L13.2327 11.1532C12.9646 11.348 12.6038 11.0858 12.7062 10.7706L13.4563 8.46208C13.5021 8.3211 13.4519 8.16666 13.332 8.07952L11.3682 6.65278C11.1001 6.45795 11.2379 6.0338 11.5694 6.0338H13.9967C14.1449 6.0338 14.2763 5.93834 14.3221 5.79736L15.0722 3.48885Z" fill="#FFC107"/>
<path d="M25.3373 3.48885C25.4397 3.17361 25.8857 3.17361 25.9881 3.48885L26.7382 5.79736C26.784 5.93834 26.9154 6.0338 27.0636 6.0338H29.4909C29.8224 6.0338 29.9602 6.45795 29.692 6.65278L27.7283 8.07952C27.6084 8.16666 27.5582 8.3211 27.604 8.46208L28.3541 10.7706C28.4565 11.0858 28.0957 11.348 27.8275 11.1531L25.8638 9.72641C25.7439 9.63928 25.5815 9.63928 25.4616 9.72641L23.4978 11.1532C23.2297 11.348 22.8688 11.0858 22.9713 10.7706L23.7214 8.46208C23.7672 8.3211 23.717 8.16666 23.5971 8.07952L21.6333 6.65278C21.3652 6.45795 21.503 6.0338 21.8344 6.0338H24.2618C24.41 6.0338 24.5414 5.93834 24.5872 5.79736L25.3373 3.48885Z" fill="#FFC107"/>
<path d="M35.6023 3.48885C35.7047 3.17361 36.1507 3.17361 36.2531 3.48885L37.0032 5.79736C37.049 5.93834 37.1804 6.0338 37.3286 6.0338H39.7559C40.0874 6.0338 40.2252 6.45795 39.9571 6.65278L37.9933 8.07952C37.8734 8.16666 37.8232 8.3211 37.869 8.46208L38.6191 10.7706C38.7215 11.0858 38.3607 11.348 38.0926 11.1531L36.1288 9.72641C36.0089 9.63928 35.8465 9.63928 35.7266 9.72641L33.7628 11.1532C33.4947 11.348 33.1339 11.0858 33.2363 10.7706L33.9864 8.46208C34.0322 8.3211 33.982 8.16666 33.8621 8.07952L31.8983 6.65278C31.6302 6.45795 31.768 6.0338 32.0995 6.0338H34.5268C34.675 6.0338 34.8064 5.93834 34.8522 5.79736L35.6023 3.48885Z" fill="#FFC107"/>
<path d="M45.8674 3.48885C45.9698 3.17361 46.4158 3.17361 46.5182 3.48885L47.2683 5.79736C47.3141 5.93834 47.4455 6.0338 47.5937 6.0338H50.021C50.3525 6.0338 50.4903 6.45795 50.2221 6.65278L48.2584 8.07952C48.1385 8.16666 48.0883 8.3211 48.1341 8.46208L48.8842 10.7706C48.9866 11.0858 48.6258 11.348 48.3576 11.1531L46.3939 9.72641C46.274 9.63928 46.1116 9.63928 45.9917 9.72641L44.0279 11.1532C43.7597 11.348 43.3989 11.0858 43.5014 10.7706L44.2514 8.46208C44.2973 8.3211 44.2471 8.16666 44.1271 8.07952L42.1634 6.65278C41.8952 6.45795 42.0331 6.0338 42.3645 6.0338H44.7918C44.9401 6.0338 45.0715 5.93834 45.1173 5.79736L45.8674 3.48885Z" fill="white"/>
<path d="M61.824 8.82471V9.32275H56.7899V8.98584L60.076 4.01025H60.5643L59.8709 5.21631L57.5027 8.82471H61.824ZM60.7156 4.01025V11.1196H60.1346V4.01025H60.7156ZM62.7176 10.7632C62.7176 10.6493 62.7534 10.5532 62.825 10.4751C62.8999 10.3937 63.0008 10.353 63.1277 10.353C63.258 10.353 63.3605 10.3937 63.4354 10.4751C63.5102 10.5532 63.5477 10.6493 63.5477 10.7632C63.5477 10.8739 63.5102 10.9683 63.4354 11.0464C63.3605 11.1245 63.258 11.1636 63.1277 11.1636C63.0008 11.1636 62.8999 11.1245 62.825 11.0464C62.7534 10.9683 62.7176 10.8739 62.7176 10.7632ZM65.9256 7.604L65.4666 7.47217L65.8133 4.01025H69.368V4.55713H66.3113L66.0623 6.94971C66.186 6.86182 66.3651 6.77555 66.5994 6.69092C66.8371 6.60303 67.104 6.55908 67.4002 6.55908C67.716 6.55908 68.0024 6.61279 68.2596 6.72021C68.52 6.82438 68.743 6.97738 68.9285 7.1792C69.1141 7.37777 69.2573 7.61865 69.3582 7.90186C69.4591 8.1818 69.5096 8.49919 69.5096 8.854C69.5096 9.1958 69.4673 9.50993 69.3826 9.79639C69.298 10.0828 69.1694 10.3335 68.9969 10.5483C68.8244 10.7599 68.6046 10.9243 68.3377 11.0415C68.0708 11.1587 67.7534 11.2173 67.3856 11.2173C67.1024 11.2173 66.8354 11.1782 66.5848 11.1001C66.3374 11.0187 66.116 10.8966 65.9207 10.7339C65.7254 10.5711 65.5659 10.366 65.4422 10.1187C65.3218 9.87126 65.2469 9.58154 65.2176 9.24951H65.7791C65.8182 9.56852 65.9044 9.83708 66.0379 10.0552C66.1714 10.2733 66.3504 10.4377 66.575 10.5483C66.8029 10.659 67.0731 10.7144 67.3856 10.7144C67.6395 10.7144 67.8608 10.6737 68.0496 10.5923C68.2417 10.5109 68.4012 10.3921 68.5281 10.2358C68.6583 10.0763 68.756 9.88265 68.8211 9.65479C68.8895 9.42367 68.9236 9.15999 68.9236 8.86377C68.9236 8.60986 68.8878 8.37712 68.8162 8.16553C68.7446 7.95068 68.6388 7.76351 68.4988 7.604C68.3621 7.44124 68.1929 7.31592 67.991 7.22803C67.7892 7.14014 67.5581 7.09619 67.2977 7.09619C66.9591 7.09619 66.6889 7.14176 66.4871 7.23291C66.2886 7.32406 66.1014 7.44775 65.9256 7.604Z" fill="#F4FAFF"/>
</svg>
