<svg width="21" height="21" viewBox="0 0 21 21" fill="none" xmlns="http://www.w3.org/2000/svg">
<rect x="0.5" y="4.29419" width="16" height="16" rx="2" fill="#FFC107" fill-opacity="0.1"/>
<path d="M7.60559 3.51777L7.60438 3.51737C7.31832 3.42201 7.03041 3.50854 6.87477 3.7155C6.71647 3.9281 6.56755 4.14921 6.43246 4.3741L6.28782 4.62605C6.16333 4.84855 6.05077 5.08225 5.9458 5.32396C5.85876 5.53298 5.89811 5.7776 6.05225 5.96837L6.14894 6.05462L7.2064 6.99776L7.37004 7.1437L7.33502 7.36015C7.28586 7.66404 7.25918 7.9761 7.25918 8.29181C7.25918 8.60752 7.28586 8.91958 7.33502 9.22347L7.37004 9.43992L7.2064 9.58586L6.15052 10.5276C6.15027 10.5278 6.15003 10.528 6.14979 10.5282C5.92203 10.734 5.85509 11.0272 5.95495 11.2636C6.06003 11.5056 6.17271 11.7396 6.29736 11.9624L6.44289 12.2158C6.57607 12.4421 6.72403 12.6576 6.88429 12.8729C7.03993 13.0798 7.32785 13.1664 7.6139 13.071L7.61512 13.0706L8.95837 12.6276L9.16759 12.5586L9.33773 12.6986C9.81371 13.09 10.3566 13.406 10.9487 13.6286L11.1544 13.7059L11.1995 13.921L11.49 15.3071L11.4903 15.3083C11.5508 15.6012 11.7725 15.81 12.0262 15.8397L12.0272 15.8399C12.3302 15.876 12.6383 15.8942 12.9515 15.8942C13.2646 15.8942 13.5727 15.876 13.8758 15.8399L13.8767 15.8397C14.132 15.8099 14.3522 15.6044 14.4125 15.3091L14.4129 15.3071L14.7035 13.921L14.7488 13.7049L14.9558 13.628C15.5412 13.4107 16.0885 13.0906 16.5652 12.6986L16.7354 12.5586L16.9446 12.6276L18.2878 13.0706L18.289 13.071C18.5754 13.1665 18.8635 13.0797 19.0191 12.8723L19.0191 12.8723L19.0215 12.8691C19.1844 12.6564 19.3318 12.4417 19.465 12.2155C19.4653 12.215 19.4656 12.2145 19.4659 12.214L19.6049 11.973C19.7302 11.7445 19.843 11.5101 19.9476 11.2692C20.0491 11.0254 19.9787 10.7332 19.7548 10.5344L19.754 10.5338L18.6965 9.59062L18.5329 9.44468L18.5679 9.22823C18.6171 8.92434 18.6438 8.61228 18.6438 8.29657C18.6438 7.98071 18.617 7.66895 18.5681 7.3706L18.5324 7.15363L18.6965 7.00728L19.7524 6.06555C19.7527 6.06534 19.7529 6.06513 19.7531 6.06491C19.9812 5.85882 20.048 5.5651 19.9476 5.32858C19.8428 5.08255 19.73 4.84833 19.605 4.62497C19.6048 4.62471 19.6047 4.62445 19.6046 4.62419L19.4665 4.38035C19.3255 4.15324 19.1762 3.93184 19.0187 3.72036C18.8631 3.51333 18.5751 3.42676 18.289 3.52213L18.2862 3.52306L16.9382 3.96129L16.7297 4.02905L16.5604 3.88982C16.0845 3.49836 15.5416 3.18237 14.9494 2.95976L14.7438 2.88245L14.6987 2.66741L14.4081 1.28129L14.4079 1.28012C14.3474 0.987152 14.1257 0.778332 13.8719 0.748642L13.8703 0.748443C13.5722 0.712316 13.2692 0.694189 12.961 0.694189H12.9277C12.6194 0.694189 12.3185 0.712326 12.0243 0.752445L12.0243 0.752517L12.0167 0.753402C11.7614 0.783278 11.5413 0.988727 11.4809 1.28405L11.4804 1.28632L11.1899 2.66768L11.1445 2.88357L10.9377 2.96034C10.3522 3.17766 9.8049 3.49777 9.32821 3.88982L9.15806 4.02975L8.94885 3.96076L7.60559 3.51777ZM14.8463 6.397C15.3501 6.9008 15.6331 7.58409 15.6331 8.29657C15.6331 9.00905 15.3501 9.69234 14.8463 10.1961C14.3425 10.6999 13.6592 10.983 12.9467 10.983C12.2342 10.983 11.5509 10.6999 11.0471 10.1961C10.5433 9.69234 10.2603 9.00905 10.2603 8.29657C10.2603 7.5841 10.5433 6.9008 11.0471 6.397C11.5509 5.89321 12.2342 5.61018 12.9467 5.61018C13.6592 5.61018 14.3425 5.89321 14.8463 6.397Z" stroke="#FFC107" stroke-width="0.8"/>
</svg>
