<svg width="25" height="24" viewBox="0 0 25 24" fill="none" xmlns="http://www.w3.org/2000/svg">
<rect x="0.5" width="24" height="24" rx="12" fill="#0056A6"/>
<g clip-path="url(#clip0_533_1904)">
<path d="M12.5022 7.95537C10.2663 7.95537 8.46279 9.75889 8.46279 11.9948C8.46279 14.2308 10.2663 16.0343 12.5022 16.0343C14.7382 16.0343 16.5417 14.2308 16.5417 11.9948C16.5417 9.75889 14.7382 7.95537 12.5022 7.95537ZM12.5022 14.621C11.0573 14.621 9.87607 13.4433 9.87607 11.9948C9.87607 10.5464 11.0538 9.36865 12.5022 9.36865C13.9507 9.36865 15.1284 10.5464 15.1284 11.9948C15.1284 13.4433 13.9472 14.621 12.5022 14.621ZM17.6491 7.79014C17.6491 8.31396 17.2272 8.73232 16.7069 8.73232C16.1831 8.73232 15.7647 8.31045 15.7647 7.79014C15.7647 7.26982 16.1866 6.84795 16.7069 6.84795C17.2272 6.84795 17.6491 7.26982 17.6491 7.79014ZM20.3245 8.74639C20.2647 7.48428 19.9765 6.36631 19.0519 5.44521C18.1308 4.52412 17.0128 4.23584 15.7507 4.17256C14.4499 4.09873 10.5511 4.09873 9.25029 4.17256C7.9917 4.23232 6.87373 4.52061 5.94912 5.4417C5.02451 6.36279 4.73975 7.48076 4.67646 8.74287C4.60264 10.0437 4.60264 13.9425 4.67646 15.2433C4.73623 16.5054 5.02451 17.6233 5.94912 18.5444C6.87373 19.4655 7.98818 19.7538 9.25029 19.8171C10.5511 19.8909 14.4499 19.8909 15.7507 19.8171C17.0128 19.7573 18.1308 19.469 19.0519 18.5444C19.9729 17.6233 20.2612 16.5054 20.3245 15.2433C20.3983 13.9425 20.3983 10.0472 20.3245 8.74639ZM18.644 16.639C18.3698 17.328 17.839 17.8589 17.1464 18.1366C16.1093 18.5479 13.6483 18.453 12.5022 18.453C11.3562 18.453 8.8917 18.5444 7.85811 18.1366C7.16904 17.8624 6.63818 17.3315 6.36045 16.639C5.94912 15.6019 6.04404 13.1409 6.04404 11.9948C6.04404 10.8487 5.95264 8.38428 6.36045 7.35068C6.63467 6.66162 7.16553 6.13076 7.85811 5.85303C8.89521 5.4417 11.3562 5.53662 12.5022 5.53662C13.6483 5.53662 16.1128 5.44521 17.1464 5.85303C17.8355 6.12725 18.3663 6.65811 18.644 7.35068C19.0554 8.38779 18.9604 10.8487 18.9604 11.9948C18.9604 13.1409 19.0554 15.6054 18.644 16.639Z" fill="white"/>
</g>
<defs>
<clipPath id="clip0_533_1904">
<rect width="15.75" height="18" fill="white" transform="translate(4.625 3)"/>
</clipPath>
</defs>
</svg>
