<svg width="19" height="19" viewBox="0 0 19 19" fill="none" xmlns="http://www.w3.org/2000/svg">
<rect x="0.5" y="2.79419" width="16" height="16" rx="2" fill="#FFC107" fill-opacity="0.1"/>
<g clip-path="url(#clip0_196_3162)">
<path d="M5.875 14.8012V14.448L5.5422 14.33C5.22631 14.2179 5 13.9152 5 13.5625C5 12.1461 6.14606 11 7.5625 11H8.48672C9.58044 11 10.4688 10.1117 10.4688 9.01797C10.4688 8.36916 10.1286 7.82474 9.81975 7.42644L9.42466 7.73277L9.8202 7.42702C9.54062 7.06534 9.375 6.61423 9.375 6.125C9.375 4.95192 10.3269 4 11.5 4C12.6731 4 13.625 4.95192 13.625 6.125C13.625 6.6141 13.4595 7.06511 13.18 7.42674C12.8713 7.82501 12.5312 8.36932 12.5312 9.01797C12.5312 10.1117 13.4196 11 14.5133 11H15.4375C16.8539 11 18 12.1461 18 13.5625C18 13.9152 17.7737 14.2179 17.4578 14.33L17.125 14.448V14.8012V16.1875C17.125 16.636 16.761 17 16.3125 17H6.6875C6.23903 17 5.875 16.636 5.875 16.1875V14.8012ZM16.375 14.875V14.375H15.875H7.125H6.625V14.875V15.75V16.25H7.125H15.875H16.375V15.75V14.875Z" stroke="#FFC107"/>
</g>
<defs>
<clipPath id="clip0_196_3162">
<rect width="14" height="14" fill="white" transform="translate(4.5 0.794189)"/>
</clipPath>
</defs>
</svg>
