<svg width="80" height="17" viewBox="0 0 80 17" fill="none" xmlns="http://www.w3.org/2000/svg">
<path d="M7.61958 1.67082C7.73932 1.30229 8.26068 1.3023 8.38042 1.67082L9.70631 5.75147C9.75986 5.91628 9.91344 6.02786 10.0867 6.02786H14.3774C14.7649 6.02786 14.926 6.52371 14.6125 6.75147L11.1413 9.27345C11.0011 9.37531 10.9424 9.55586 10.996 9.72066L12.3219 13.8013C12.4416 14.1698 12.0198 14.4763 11.7063 14.2485L8.23511 11.7265C8.09492 11.6247 7.90508 11.6247 7.76489 11.7265L4.29368 14.2485C3.98019 14.4763 3.5584 14.1698 3.67814 13.8013L5.00402 9.72067C5.05757 9.55586 4.99891 9.37531 4.85872 9.27345L1.38751 6.75147C1.07402 6.52371 1.23513 6.02786 1.62262 6.02786H5.91327C6.08656 6.02786 6.24014 5.91628 6.29369 5.75147L7.61958 1.67082Z" fill="#FFC107"/>
<path d="M23.6196 1.67082C23.7393 1.30229 24.2607 1.3023 24.3804 1.67082L25.7063 5.75147C25.7599 5.91628 25.9134 6.02786 26.0867 6.02786H30.3774C30.7649 6.02786 30.926 6.52371 30.6125 6.75147L27.1413 9.27345C27.0011 9.37531 26.9424 9.55586 26.996 9.72066L28.3219 13.8013C28.4416 14.1698 28.0198 14.4763 27.7063 14.2485L24.2351 11.7265C24.0949 11.6247 23.9051 11.6247 23.7649 11.7265L20.2937 14.2485C19.9802 14.4763 19.5584 14.1698 19.6781 13.8013L21.004 9.72067C21.0576 9.55586 20.9989 9.37531 20.8587 9.27345L17.3875 6.75147C17.074 6.52371 17.2351 6.02786 17.6226 6.02786H21.9133C22.0866 6.02786 22.2401 5.91628 22.2937 5.75147L23.6196 1.67082Z" fill="#FFC107"/>
<path d="M39.6196 1.67082C39.7393 1.30229 40.2607 1.3023 40.3804 1.67082L41.7063 5.75147C41.7599 5.91628 41.9134 6.02786 42.0867 6.02786H46.3774C46.7649 6.02786 46.926 6.52371 46.6125 6.75147L43.1413 9.27345C43.0011 9.37531 42.9424 9.55586 42.996 9.72066L44.3219 13.8013C44.4416 14.1698 44.0198 14.4763 43.7063 14.2485L40.2351 11.7265C40.0949 11.6247 39.9051 11.6247 39.7649 11.7265L36.2937 14.2485C35.9802 14.4763 35.5584 14.1698 35.6781 13.8013L37.004 9.72067C37.0576 9.55586 36.9989 9.37531 36.8587 9.27345L33.3875 6.75147C33.074 6.52371 33.2351 6.02786 33.6226 6.02786H37.9133C38.0866 6.02786 38.2401 5.91628 38.2937 5.75147L39.6196 1.67082Z" fill="#FFC107"/>
<path d="M55.6196 1.67082C55.7393 1.30229 56.2607 1.3023 56.3804 1.67082L57.7063 5.75147C57.7599 5.91628 57.9134 6.02786 58.0867 6.02786H62.3774C62.7649 6.02786 62.926 6.52371 62.6125 6.75147L59.1413 9.27345C59.0011 9.37531 58.9424 9.55586 58.996 9.72066L60.3219 13.8013C60.4416 14.1698 60.0198 14.4763 59.7063 14.2485L56.2351 11.7265C56.0949 11.6247 55.9051 11.6247 55.7649 11.7265L52.2937 14.2485C51.9802 14.4763 51.5584 14.1698 51.6781 13.8013L53.004 9.72067C53.0576 9.55586 52.9989 9.37531 52.8587 9.27345L49.3875 6.75147C49.074 6.52371 49.2351 6.02786 49.6226 6.02786H53.9133C54.0866 6.02786 54.2401 5.91628 54.2937 5.75147L55.6196 1.67082Z" fill="#FFC107"/>
<path d="M71.6196 1.67082C71.7393 1.30229 72.2607 1.3023 72.3804 1.67082L73.7063 5.75147C73.7599 5.91628 73.9134 6.02786 74.0867 6.02786H78.3774C78.7649 6.02786 78.926 6.52371 78.6125 6.75147L75.1413 9.27345C75.0011 9.37531 74.9424 9.55586 74.996 9.72066L76.3219 13.8013C76.4416 14.1698 76.0198 14.4763 75.7063 14.2485L72.2351 11.7265C72.0949 11.6247 71.9051 11.6247 71.7649 11.7265L68.2937 14.2485C67.9802 14.4763 67.5584 14.1698 67.6781 13.8013L69.004 9.72067C69.0576 9.55586 68.9989 9.37531 68.8587 9.27345L65.3875 6.75147C65.074 6.52371 65.2351 6.02786 65.6226 6.02786H69.9133C70.0866 6.02786 70.2401 5.91628 70.2937 5.75147L71.6196 1.67082Z" fill="#D9D9D9"/>
</svg>
