<svg width="13" height="12" viewBox="0 0 13 12" fill="none" xmlns="http://www.w3.org/2000/svg">
<path d="M11.8661 6.73574C12.2079 6.39395 12.2079 5.83887 11.8661 5.49707L7.49111 1.12207C7.14932 0.780273 6.59424 0.780273 6.25244 1.12207C5.91064 1.46387 5.91064 2.01895 6.25244 2.36074L10.0095 6.11777L6.25517 9.8748C5.91338 10.2166 5.91338 10.7717 6.25517 11.1135C6.59697 11.4553 7.15205 11.4553 7.49385 11.1135L11.8688 6.73848L11.8661 6.73574ZM2.24111 11.1107L6.61611 6.73574C6.95791 6.39395 6.95791 5.83887 6.61611 5.49707L2.24111 1.12207C1.89932 0.780273 1.34424 0.780273 1.00244 1.12207C0.660645 1.46387 0.660645 2.01895 1.00244 2.36074L4.75947 6.11777L1.00518 9.8748C0.663379 10.2166 0.663379 10.7717 1.00518 11.1135C1.34697 11.4553 1.90205 11.4553 2.24385 11.1135L2.24111 11.1107Z" fill="#FFC107"/>
</svg>
