<svg width="25" height="24" viewBox="0 0 25 24" fill="none" xmlns="http://www.w3.org/2000/svg">
<rect x="0.5" width="24" height="24" rx="12" fill="#0056A6"/>
<path d="M19.3138 8.5664C19.1497 7.94922 18.668 7.46484 18.056 7.30078C16.9466 7.0013 12.4987 7.0013 12.4987 7.0013C12.4987 7.0013 8.05078 7.0013 6.94141 7.30078C6.32943 7.46484 5.84766 7.94922 5.68359 8.5664C5.38672 9.68359 5.38672 12.0117 5.38672 12.0117C5.38672 12.0117 5.38672 14.3398 5.68359 15.457C5.84766 16.0742 6.32943 16.5378 6.94141 16.7018C8.05078 17.0013 12.4987 17.0013 12.4987 17.0013C12.4987 17.0013 16.9466 17.0013 18.056 16.7018C18.668 16.5378 19.1497 16.0716 19.3138 15.457C19.6107 14.3398 19.6107 12.0117 19.6107 12.0117C19.6107 12.0117 19.6107 9.68359 19.3138 8.5664ZM11.0456 14.1263V9.89713L14.7617 12.0117L11.0456 14.1263Z" fill="white"/>
</svg>
