<svg width="68" height="60" viewBox="0 0 68 60" fill="none" xmlns="http://www.w3.org/2000/svg">
<path d="M0.25 7.5C0.25 3.36328 3.61328 0 7.75 0H26.5V15C26.5 17.0742 28.1758 18.75 30.25 18.75H45.25V24.2578L34.375 28.6055C31.8789 29.6016 30.25 32.0156 30.25 34.6992C30.25 41.332 32.4648 52.043 41.2891 59.1094C40.2344 59.6719 39.0273 60 37.75 60H7.75C3.61328 60 0.25 56.6367 0.25 52.5V7.5ZM45.25 15H30.25V0L45.25 15ZM49.832 26.4492C50.5 26.1797 51.25 26.1797 51.918 26.4492L65.9805 32.0742C67.0469 32.5078 67.75 33.5391 67.75 34.6875C67.75 42.1055 64.7148 54.4688 51.9531 59.7891C51.2617 60.082 50.4766 60.082 49.7852 59.7891C37.0352 54.4688 34 42.1055 34 34.6875C34 33.5391 34.7031 32.5078 35.7695 32.0742L49.832 26.4492ZM62.0547 36.5625L50.875 32.0859V54.0938C58.8672 50.2266 61.5977 42.4922 62.0547 36.5508V36.5625Z" fill="#0056A6"/>
</svg>
