<svg width="60" height="54" viewBox="0 0 60 54" fill="none" xmlns="http://www.w3.org/2000/svg">
<path d="M37.9453 1.07817C33.4688 -0.199173 28.793 2.39067 27.5156 6.86723L26.8477 9.21098C26.4141 10.7344 25.6289 12.1407 24.5625 13.3125L18.5508 19.9219C17.5078 21.0704 17.5898 22.8516 18.7383 23.8946C19.8867 24.9375 21.668 24.8555 22.7109 23.7071L28.7227 17.0977C30.375 15.2813 31.582 13.1133 32.25 10.7579L32.918 8.41411C33.3398 6.92583 34.8984 6.05864 36.3984 6.48051C37.8984 6.90239 38.7539 8.46098 38.332 9.96098L37.6641 12.3047C36.9961 14.6368 35.9414 16.8399 34.5469 18.8086C33.9375 19.6641 33.8672 20.7891 34.3477 21.7266C34.8281 22.6641 35.7891 23.25 36.8438 23.25H52.5C53.5312 23.25 54.375 24.0938 54.375 25.125C54.375 25.9219 53.8711 26.6133 53.1562 26.8829C52.2891 27.211 51.6328 27.9375 51.4102 28.8399C51.1875 29.7422 51.4219 30.6915 52.0312 31.3829C52.3242 31.711 52.5 32.1446 52.5 32.625C52.5 33.5391 51.8438 34.3008 50.9766 34.4649C50.0156 34.6524 49.207 35.3204 48.8672 36.2461C48.5273 37.1719 48.6797 38.2032 49.2891 38.9766C49.5352 39.293 49.6875 39.6915 49.6875 40.1368C49.6875 40.9219 49.1953 41.6133 48.4922 41.8829C47.1445 42.4102 46.418 43.8633 46.8047 45.2579C46.8516 45.4102 46.875 45.586 46.875 45.7618C46.875 46.793 46.0312 47.6368 45 47.6368H33.5742C32.0977 47.6368 30.6445 47.2032 29.4141 46.3829L22.1836 41.5664C20.8945 40.6993 19.1484 41.0508 18.2812 42.3516C17.4141 43.6524 17.7656 45.3868 19.0664 46.2539L26.2969 51.0704C28.4531 52.5118 30.9844 53.2735 33.5742 53.2735H45C49.0664 53.2735 52.3711 50.0391 52.5 46.0079C54.2109 44.6368 55.3125 42.5274 55.3125 40.1485C55.3125 39.6211 55.2539 39.1172 55.1602 38.625C56.9648 37.254 58.125 35.086 58.125 32.6485C58.125 31.8868 58.0078 31.1485 57.7969 30.4571C59.1562 29.0743 60 27.1993 60 25.125C60 20.9883 56.6484 17.625 52.5 17.625H41.6836C42.2344 16.4063 42.7031 15.1407 43.0664 13.8516L43.7344 11.5079C45.0117 7.0313 42.4219 2.35551 37.9453 1.07817ZM3.75 19.5C1.67578 19.5 0 21.1758 0 23.25V49.5C0 51.5743 1.67578 53.25 3.75 53.25H11.25C13.3242 53.25 15 51.5743 15 49.5V23.25C15 21.1758 13.3242 19.5 11.25 19.5H3.75Z" fill="#0056A6"/>
</svg>
