<svg width="54" height="54" viewBox="0 0 54 54" fill="none" xmlns="http://www.w3.org/2000/svg">
<path d="M40.8984 7.14844C42.3633 5.68359 42.3633 3.30469 40.8984 1.83984C39.4336 0.375 37.0547 0.375 35.5898 1.83984L19.5 17.9414L12.7734 11.2148C11.3086 9.75 8.92969 9.75 7.46484 11.2148C6 12.6797 6 15.0586 7.46484 16.5234L16.8398 25.8984C18.3047 27.3633 20.6836 27.3633 22.1484 25.8984L40.8984 7.14844ZM52.1484 22.1484C53.6133 20.6836 53.6133 18.3047 52.1484 16.8398C50.6836 15.375 48.3047 15.375 46.8398 16.8398L19.5 44.1914L7.14844 31.8516C5.68359 30.3867 3.30469 30.3867 1.83984 31.8516C0.375 33.3164 0.375 35.6953 1.83984 37.1602L16.8398 52.1602C18.3047 53.625 20.6836 53.625 22.1484 52.1602L52.1484 22.1602V22.1484Z" fill="#0056A6"/>
</svg>
