<svg width="60" height="60" viewBox="0 0 60 60" fill="none" xmlns="http://www.w3.org/2000/svg">
<path d="M8.78906 8.78906L4.80469 4.80469C3.03516 3.03516 0 4.28906 0 6.78516V19.6875C0 21.2461 1.25391 22.5 2.8125 22.5H15.7148C18.2227 22.5 19.4766 19.4648 17.707 17.6953L14.0977 14.0859C18.1641 10.0195 23.7891 7.5 30 7.5C42.4219 7.5 52.5 17.5781 52.5 30C52.5 42.4219 42.4219 52.5 30 52.5C25.2188 52.5 20.7891 51.0117 17.1445 48.4688C15.4453 47.2852 13.1133 47.6953 11.918 49.3945C10.7227 51.0938 11.1445 53.4258 12.8438 54.6211C17.7188 58.0078 23.6367 60 30 60C46.5703 60 60 46.5703 60 30C60 13.4297 46.5703 0 30 0C21.7148 0 14.2148 3.36328 8.78906 8.78906ZM30 15C28.4414 15 27.1875 16.2539 27.1875 17.8125V30C27.1875 30.75 27.4805 31.4648 28.0078 31.9922L36.4453 40.4297C37.5469 41.5312 39.3281 41.5312 40.418 40.4297C41.5078 39.3281 41.5195 37.5469 40.418 36.457L32.8008 28.8398V17.8125C32.8008 16.2539 31.5469 15 29.9883 15H30Z" fill="#0056A6"/>
</svg>
