<svg width="46" height="60" viewBox="0 0 46 60" fill="none" xmlns="http://www.w3.org/2000/svg">
<path d="M8 0C3.86328 0 0.5 3.36328 0.5 7.5V52.5C0.5 56.6367 3.86328 60 8 60H38C42.1367 60 45.5 56.6367 45.5 52.5V18.75H30.5C28.4258 18.75 26.75 17.0742 26.75 15V0H8ZM30.5 0V15H45.5L30.5 0ZM8 9.375C8 8.34375 8.84375 7.5 9.875 7.5H17.375C18.4062 7.5 19.25 8.34375 19.25 9.375C19.25 10.4062 18.4062 11.25 17.375 11.25H9.875C8.84375 11.25 8 10.4062 8 9.375ZM8 16.875C8 15.8438 8.84375 15 9.875 15H17.375C18.4062 15 19.25 15.8438 19.25 16.875C19.25 17.9062 18.4062 18.75 17.375 18.75H9.875C8.84375 18.75 8 17.9062 8 16.875ZM23 25.3125C24.0312 25.3125 24.875 26.1562 24.875 27.1875V29.2148C25.8711 29.3555 26.832 29.5781 27.6992 29.8125C28.6953 30.082 29.293 31.1016 29.0234 32.1094C28.7539 33.1172 27.7344 33.7031 26.7266 33.4336C25.4258 33.082 24.1484 32.8242 22.9648 32.8125C21.9805 32.8008 20.9258 33.0234 20.1992 33.457C19.5312 33.8555 19.25 34.3125 19.25 34.957C19.25 35.3906 19.4023 35.7188 20.1055 36.1406C20.9141 36.6211 22.0508 36.9727 23.5273 37.418L23.5859 37.4297C24.9102 37.8281 26.5508 38.3203 27.8398 39.1406C29.2578 40.0312 30.4648 41.4492 30.5 43.6172C30.5352 45.8789 29.375 47.5195 27.8164 48.4922C26.9141 49.0547 25.8945 49.3828 24.875 49.5586V51.5625C24.875 52.5938 24.0312 53.4375 23 53.4375C21.9688 53.4375 21.125 52.5938 21.125 51.5625V49.4766C19.8125 49.2305 18.582 48.8086 17.5039 48.4336C17.2578 48.3516 17.0117 48.2695 16.7773 48.1875C15.793 47.8594 15.2656 46.793 15.5938 45.8203C15.9219 44.8477 16.9883 44.3086 17.9609 44.6367C18.2539 44.7305 18.5234 44.8242 18.793 44.918C20.3867 45.457 21.6758 45.9023 23.0469 45.9375C24.1133 45.9727 25.1445 45.7383 25.8242 45.3164C26.4219 44.9414 26.75 44.4609 26.7383 43.6758C26.7266 43.1367 26.5273 42.7617 25.8359 42.3164C25.0391 41.8125 23.9023 41.4492 22.4375 41.0039L22.25 40.9453C20.9609 40.5586 19.4023 40.0898 18.1719 39.3398C16.7656 38.4961 15.5234 37.125 15.5117 34.9688C15.5 32.6953 16.7773 31.125 18.3008 30.2227C19.1797 29.707 20.1523 29.3789 21.125 29.2031V27.1758C21.125 26.1445 21.9688 25.3008 23 25.3008V25.3125Z" fill="#0056A6"/>
</svg>
