<svg width="60" height="60" viewBox="0 0 60 60" fill="none" xmlns="http://www.w3.org/2000/svg">
<path d="M9.21084 0.585881C8.09756 -0.281306 6.51553 -0.175837 5.50772 0.820256L0.820215 5.50776C-0.175878 6.50385 -0.281347 8.08588 0.574122 9.21088L9.94912 21.3984C10.4765 22.0898 11.3085 22.4999 12.1757 22.4999H18.5155L31.289 35.2734C29.5663 38.6718 30.1171 42.9374 32.9647 45.7734L46.0897 58.8984C47.5546 60.3632 49.9335 60.3632 51.3983 58.8984L58.8983 51.3984C60.3632 49.9335 60.3632 47.5546 58.8983 46.0898L45.7733 32.9648C42.9374 30.1288 38.6718 29.5664 35.2733 31.289L22.4999 18.5156V12.1757C22.4999 11.2968 22.0897 10.4765 21.3983 9.94916L9.21084 0.585881ZM2.33193 46.4179C0.843653 47.9062 -9.71188e-05 49.9335 -9.71188e-05 52.0429C-9.71188e-05 56.4374 3.5624 59.9999 7.95693 59.9999C10.0663 59.9999 12.0937 59.1562 13.5819 57.6679L27.3866 43.8632C26.4726 41.414 26.3319 38.7539 26.9647 36.2343L19.7343 29.0039L2.33193 46.4179ZM59.9999 16.8749C59.9999 15.6445 59.871 14.4492 59.6249 13.3007C59.3437 11.9882 57.7382 11.6484 56.789 12.5976L49.3007 20.0859C48.9491 20.4374 48.4687 20.6367 47.9765 20.6367L41.2499 20.6249C40.2187 20.6249 39.3749 19.7812 39.3749 18.7499V12.0234C39.3749 11.5312 39.5741 11.0507 39.9257 10.6992L47.414 3.21088C48.3632 2.26166 48.0233 0.656194 46.7108 0.374944C45.5507 0.12885 44.3554 -5.61165e-05 43.1249 -5.61165e-05C33.8085 -5.61165e-05 26.2499 7.55854 26.2499 16.8749V16.9687L36.246 26.9648C40.4647 25.8984 45.1288 27.0234 48.4335 30.3281L50.2733 32.1679C56.0155 29.4726 59.9999 23.6367 59.9999 16.8749ZM6.5624 50.6249C6.5624 49.879 6.85872 49.1637 7.38617 48.6362C7.91361 48.1088 8.62898 47.8124 9.3749 47.8124C10.1208 47.8124 10.8362 48.1088 11.3636 48.6362C11.8911 49.1637 12.1874 49.879 12.1874 50.6249C12.1874 51.3709 11.8911 52.0862 11.3636 52.6137C10.8362 53.1411 10.1208 53.4374 9.3749 53.4374C8.62898 53.4374 7.91361 53.1411 7.38617 52.6137C6.85872 52.0862 6.5624 51.3709 6.5624 50.6249Z" fill="#0056A6"/>
</svg>
