<svg width="46" height="60" viewBox="0 0 46 60" fill="none" xmlns="http://www.w3.org/2000/svg">
<path d="M30.5 5.625V7.5C30.5 9.57422 28.8242 11.25 26.75 11.25H19.25C17.1758 11.25 15.5 9.57422 15.5 7.5V5.625H8C6.96875 5.625 6.125 6.46875 6.125 7.5V52.5C6.125 53.5312 6.96875 54.375 8 54.375H38C39.0312 54.375 39.875 53.5312 39.875 52.5V7.5C39.875 6.46875 39.0312 5.625 38 5.625H30.5ZM0.5 7.5C0.5 3.36328 3.86328 0 8 0H38C42.1367 0 45.5 3.36328 45.5 7.5V52.5C45.5 56.6367 42.1367 60 38 60H8C3.86328 60 0.5 56.6367 0.5 52.5V7.5ZM19.25 37.5H26.75C31.9297 37.5 36.125 41.6953 36.125 46.875C36.125 47.9062 35.2812 48.75 34.25 48.75H11.75C10.7188 48.75 9.875 47.9062 9.875 46.875C9.875 41.6953 14.0703 37.5 19.25 37.5ZM15.5 26.25C15.5 24.2609 16.2902 22.3532 17.6967 20.9467C19.1032 19.5402 21.0109 18.75 23 18.75C24.9891 18.75 26.8968 19.5402 28.3033 20.9467C29.7098 22.3532 30.5 24.2609 30.5 26.25C30.5 28.2391 29.7098 30.1468 28.3033 31.5533C26.8968 32.9598 24.9891 33.75 23 33.75C21.0109 33.75 19.1032 32.9598 17.6967 31.5533C16.2902 30.1468 15.5 28.2391 15.5 26.25Z" fill="#0056A6"/>
</svg>
