<svg width="46" height="60" viewBox="0 0 46 60" fill="none" xmlns="http://www.w3.org/2000/svg">
<path d="M25.7773 58.5C31.7891 50.9766 45.5 32.7422 45.5 22.5C45.5 10.0781 35.4219 0 23 0C10.5781 0 0.5 10.0781 0.5 22.5C0.5 32.7422 14.2109 50.9766 20.2227 58.5C21.6641 60.293 24.3359 60.293 25.7773 58.5ZM23 15C24.9891 15 26.8968 15.7902 28.3033 17.1967C29.7098 18.6032 30.5 20.5109 30.5 22.5C30.5 24.4891 29.7098 26.3968 28.3033 27.8033C26.8968 29.2098 24.9891 30 23 30C21.0109 30 19.1032 29.2098 17.6967 27.8033C16.2902 26.3968 15.5 24.4891 15.5 22.5C15.5 20.5109 16.2902 18.6032 17.6967 17.1967C19.1032 15.7902 21.0109 15 23 15Z" fill="white"/>
</svg>
