<svg width="75" height="50" viewBox="0 0 75 50" fill="none" xmlns="http://www.w3.org/2000/svg">
<path d="M5.625 0.5C2.51953 0.5 0 3.01953 0 6.125C0 7.89453 0.832031 9.55859 2.25 10.625L27.75 29.75C29.0859 30.7461 30.9141 30.7461 32.25 29.75L38.9766 24.7109C41.7773 17.7031 48.3164 12.6055 56.1211 11.8438L57.75 10.625C59.168 9.55859 60 7.89453 60 6.125C60 3.01953 57.4805 0.5 54.375 0.5H5.625ZM34.5 32.75C31.8281 34.7539 28.1719 34.7539 25.5 32.75L0 13.625V38C0 42.1367 3.36328 45.5 7.5 45.5H42.2109C39.2695 41.9375 37.5 37.3555 37.5 32.375C37.5 31.7188 37.5352 31.0742 37.5938 30.4297L34.5 32.75ZM75 32.375C75 27.8995 73.2221 23.6072 70.0574 20.4426C66.8927 17.2779 62.6005 15.5 58.125 15.5C53.6495 15.5 49.3573 17.2779 46.1926 20.4426C43.0279 23.6072 41.25 27.8995 41.25 32.375C41.25 36.8505 43.0279 41.1427 46.1926 44.3074C49.3573 47.4721 53.6495 49.25 58.125 49.25C62.6005 49.25 66.8927 47.4721 70.0574 44.3074C73.2221 41.1427 75 36.8505 75 32.375ZM66.0117 27.3008C66.7383 28.0273 66.7383 29.2227 66.0117 29.9492L57.5742 38.3867C56.8477 39.1133 55.6523 39.1133 54.9258 38.3867L50.2383 33.6992C49.5117 32.9727 49.5117 31.7773 50.2383 31.0508C50.9648 30.3242 52.1602 30.3242 52.8867 31.0508L56.25 34.4141L63.3633 27.3008C64.0898 26.5742 65.2852 26.5742 66.0117 27.3008Z" fill="white"/>
</svg>
