<svg width="61" height="60" viewBox="0 0 61 60" fill="none" xmlns="http://www.w3.org/2000/svg">
<path d="M19.8242 2.88283C18.9219 0.703143 16.543 -0.457013 14.2695 0.16408L3.95703 2.97658C1.91797 3.53908 0.5 5.39064 0.5 7.50002C0.5 36.4922 24.0078 60 53 60C55.1094 60 56.9609 58.5821 57.5234 56.543L60.3359 46.2305C60.957 43.9571 59.7969 41.5781 57.6172 40.6758L46.3672 35.9883C44.457 35.1914 42.2422 35.7422 40.9414 37.3477L36.207 43.125C27.957 39.2227 21.2773 32.543 17.375 24.293L23.1523 19.5703C24.7578 18.2578 25.3086 16.0547 24.5117 14.1445L19.8242 2.89455V2.88283Z" fill="white"/>
</svg>
