<svg width="46" height="60" viewBox="0 0 46 60" fill="none" xmlns="http://www.w3.org/2000/svg">
<path d="M4.25 0C2.17578 0 0.5 1.67578 0.5 3.75C0.5 5.82422 2.17578 7.5 4.25 7.5V8.78906C4.25 13.7578 6.23047 18.5273 9.74609 22.043L17.6914 30L9.74609 37.957C6.23047 41.4727 4.25 46.2422 4.25 51.2109V52.5C2.17578 52.5 0.5 54.1758 0.5 56.25C0.5 58.3242 2.17578 60 4.25 60H8H38H41.75C43.8242 60 45.5 58.3242 45.5 56.25C45.5 54.1758 43.8242 52.5 41.75 52.5V51.2109C41.75 46.2422 39.7695 41.4727 36.2539 37.957L28.3086 30L36.2656 22.043C39.7812 18.5273 41.7617 13.7578 41.7617 8.78906V7.5C43.8359 7.5 45.5117 5.82422 45.5117 3.75C45.5117 1.67578 43.8359 0 41.7617 0H38H8H4.25ZM11.75 8.78906V7.5H34.25V8.78906C34.25 11.0156 33.5938 13.1719 32.375 15H13.625C12.418 13.1719 11.75 11.0156 11.75 8.78906ZM13.625 45C14.0352 44.3789 14.5156 43.793 15.043 43.2539L23 35.3086L30.957 43.2656C31.4961 43.8047 31.9648 44.3906 32.375 45.0117L13.625 45Z" fill="white"/>
</svg>
