<svg width="36" height="32" viewBox="0 0 36 32" fill="none" xmlns="http://www.w3.org/2000/svg">
<path d="M17.2188 0.4125C17.3937 0.15625 17.6875 0 18 0C18.3125 0 18.6063 0.15625 18.7812 0.4125L22.925 6.4375C23.625 7.45625 24 8.6625 24 9.89375V10C24 13.3125 21.3125 16 18 16C14.6875 16 12 13.3125 12 10V9.89375C12 8.65625 12.375 7.45625 13.075 6.4375L17.2188 0.4125ZM35.5125 21.0187C36.3312 22.1312 36.0938 23.6938 34.9813 24.5125L27.0688 30.3438C25.6063 31.4188 23.8438 32 22.025 32H12H2C0.89375 32 0 31.1063 0 30V26C0 24.8937 0.89375 24 2 24H4.3L7.10625 21.75C8.525 20.6125 10.2875 20 12.1062 20H17H18H22C23.1063 20 24 20.8937 24 22C24 23.1063 23.1063 24 22 24H18H17C16.45 24 16 24.45 16 25C16 25.55 16.45 26 17 26H24.5375L32.0187 20.4875C33.1312 19.6687 34.6938 19.9062 35.5125 21.0187ZM12.1 24H12.0437C12.0625 24 12.0813 24 12.1 24Z" fill="#0056A6"/>
</svg>
