<svg width="36" height="30" viewBox="0 0 36 30" fill="none" xmlns="http://www.w3.org/2000/svg">
<path d="M19.4456 3.31674L20.1375 2.54049C20.4412 2.19737 20.8856 2.04549 21.3131 2.03987C21.7181 2.03987 22.1175 2.18612 22.4325 2.47862C23.5406 3.50799 24.6712 4.90862 25.5262 6.44987C26.3812 7.97987 27 9.72362 27 11.4111C27 16.3949 22.9894 20.3999 18 20.3999C12.96 20.3999 9 16.3892 9 11.4111C9 9.31299 9.9 7.28237 11.07 5.53299C12.2456 3.77237 13.7419 2.21424 15.0581 1.02174C15.3787 0.729243 15.7894 0.588618 16.2 0.599868C16.9931 0.616743 17.5387 1.24112 18.0394 1.81487C18.1519 1.94424 18.2644 2.07362 18.3769 2.19174L19.4456 3.31112V3.31674ZM21.6 14.1111C21.6 12.058 19.5187 10.0049 18.5175 9.13862C18.2138 8.87424 17.7806 8.87424 17.4769 9.13862C16.4813 9.99924 14.4 12.0524 14.4 14.1111C14.4 16.0967 16.0144 17.7111 18 17.7111C19.9856 17.7111 21.6 16.0967 21.6 14.1111ZM1.8 16.7999C1.8 15.8042 2.60437 14.9999 3.6 14.9999H5.4C6.39562 14.9999 7.2 15.8042 7.2 16.7999C7.2 17.7955 6.39562 18.5999 5.4 18.5999V22.1999H30.6V18.5999C29.6044 18.5999 28.8 17.7955 28.8 16.7999C28.8 15.8042 29.6044 14.9999 30.6 14.9999H32.4C33.3956 14.9999 34.2 15.8042 34.2 16.7999V22.1999C35.1956 22.1999 36 23.0042 36 23.9999V27.5999C36 28.5955 35.1956 29.3999 34.2 29.3999H1.8C0.804375 29.3999 0 28.5955 0 27.5999V23.9999C0 23.0042 0.804375 22.1999 1.8 22.1999V16.7999ZM18 27.5999C18.4774 27.5999 18.9352 27.4102 19.2728 27.0727C19.6104 26.7351 19.8 26.2773 19.8 25.7999C19.8 25.3225 19.6104 24.8646 19.2728 24.5271C18.9352 24.1895 18.4774 23.9999 18 23.9999C17.5226 23.9999 17.0648 24.1895 16.7272 24.5271C16.3896 24.8646 16.2 25.3225 16.2 25.7999C16.2 26.2773 16.3896 26.7351 16.7272 27.0727C17.0648 27.4102 17.5226 27.5999 18 27.5999ZM27 25.7999C27 25.3225 26.8104 24.8646 26.4728 24.5271C26.1352 24.1895 25.6774 23.9999 25.2 23.9999C24.7226 23.9999 24.2648 24.1895 23.9272 24.5271C23.5896 24.8646 23.4 25.3225 23.4 25.7999C23.4 26.2773 23.5896 26.7351 23.9272 27.0727C24.2648 27.4102 24.7226 27.5999 25.2 27.5999C25.6774 27.5999 26.1352 27.4102 26.4728 27.0727C26.8104 26.7351 27 26.2773 27 25.7999ZM10.8 27.5999C11.2774 27.5999 11.7352 27.4102 12.0728 27.0727C12.4104 26.7351 12.6 26.2773 12.6 25.7999C12.6 25.3225 12.4104 24.8646 12.0728 24.5271C11.7352 24.1895 11.2774 23.9999 10.8 23.9999C10.3226 23.9999 9.86477 24.1895 9.52721 24.5271C9.18964 24.8646 9 25.3225 9 25.7999C9 26.2773 9.18964 26.7351 9.52721 27.0727C9.86477 27.4102 10.3226 27.5999 10.8 27.5999Z" fill="#0056A6"/>
</svg>
