<svg width="36" height="36" viewBox="0 0 36 36" fill="none" xmlns="http://www.w3.org/2000/svg">
<path d="M6.75 7.875C6.75 6.01172 8.26172 4.5 10.125 4.5C11.9883 4.5 13.5 6.01172 13.5 7.875V19.4414C13.5 20.6578 13.9992 21.6844 14.5758 22.4297C15.3141 23.3859 15.75 24.5742 15.75 25.875C15.75 28.9828 13.2328 31.5 10.125 31.5C7.01719 31.5 4.5 28.9828 4.5 25.875C4.5 24.5742 4.93594 23.3859 5.67422 22.4367C6.25078 21.6914 6.75 20.6648 6.75 19.4484V7.875ZM10.125 0C5.77266 0 2.25 3.52266 2.25 7.875V19.4344C2.25 19.4414 2.24297 19.4555 2.23594 19.4766C2.22187 19.5187 2.17969 19.5891 2.11641 19.6734C0.7875 21.3891 0 23.5406 0 25.875C0 31.4648 4.53516 36 10.125 36C15.7148 36 20.25 31.4648 20.25 25.875C20.25 23.5406 19.4625 21.3891 18.1336 19.6805C18.0703 19.5961 18.0281 19.5258 18.0141 19.4836C18.007 19.4625 18 19.4484 18 19.4414V7.875C18 3.52266 14.4773 0 10.125 0ZM10.125 29.25C11.9883 29.25 13.5 27.7383 13.5 25.875C13.5 24.4055 12.5578 23.1539 11.25 22.6898V7.875C11.25 7.25625 10.7437 6.75 10.125 6.75C9.50625 6.75 9 7.25625 9 7.875V22.6898C7.69219 23.1539 6.75 24.4055 6.75 25.875C6.75 27.7383 8.26172 29.25 10.125 29.25ZM31.5 11.25H33.75C34.657 11.25 35.4797 10.7016 35.8312 9.85781C36.1828 9.01406 35.9859 8.05078 35.3461 7.40391L30.8461 2.90391C29.9672 2.025 28.5398 2.025 27.6609 2.90391L23.1609 7.40391C22.5141 8.05078 22.3242 9.01406 22.6758 9.85781C23.0273 10.7016 23.843 11.25 24.757 11.25H27.007V31.5C27.007 32.7445 28.0125 33.75 29.257 33.75C30.5016 33.75 31.507 32.7445 31.507 31.5V11.25H31.5Z" fill="#0056A6"/>
</svg>
