<svg width="36" height="32" viewBox="0 0 36 32" fill="none" xmlns="http://www.w3.org/2000/svg">
<path d="M4.5 7.27422C4.5 5.88203 5.63203 4.75 7.02422 4.75C7.69219 4.75 8.33203 5.01719 8.81016 5.48828L9.94922 6.62734C8.47266 9.3625 8.72578 12.7797 10.7156 15.2758L10.6172 15.3672C9.95625 16.0281 9.95625 17.0969 10.6172 17.7508C11.2781 18.4047 12.3469 18.4117 13.0008 17.7508L24.2578 6.50781C24.9188 5.84688 24.9188 4.77812 24.2578 4.12422C23.5969 3.47031 22.5281 3.46328 21.8742 4.12422L21.7828 4.21563C19.2867 2.22578 15.8625 1.97266 13.1344 3.44922L11.9883 2.31016C10.6734 0.988281 8.8875 0.25 7.02422 0.25C3.14297 0.25 0 3.39297 0 7.27422V29.5C0 30.7445 1.00547 31.75 2.25 31.75C3.49453 31.75 4.5 30.7445 4.5 29.5V7.27422ZM18 22.75C18.5967 22.75 19.169 22.5129 19.591 22.091C20.0129 21.669 20.25 21.0967 20.25 20.5C20.25 19.9033 20.0129 19.331 19.591 18.909C19.169 18.4871 18.5967 18.25 18 18.25C17.4033 18.25 16.831 18.4871 16.409 18.909C15.9871 19.331 15.75 19.9033 15.75 20.5C15.75 21.0967 15.9871 21.669 16.409 22.091C16.831 22.5129 17.4033 22.75 18 22.75ZM22.5 27.25C22.5 26.6533 22.2629 26.081 21.841 25.659C21.419 25.2371 20.8467 25 20.25 25C19.6533 25 19.081 25.2371 18.659 25.659C18.2371 26.081 18 26.6533 18 27.25C18 27.8467 18.2371 28.419 18.659 28.841C19.081 29.2629 19.6533 29.5 20.25 29.5C20.8467 29.5 21.419 29.2629 21.841 28.841C22.2629 28.419 22.5 27.8467 22.5 27.25ZM22.5 18.25C23.0967 18.25 23.669 18.0129 24.091 17.591C24.5129 17.169 24.75 16.5967 24.75 16C24.75 15.4033 24.5129 14.831 24.091 14.409C23.669 13.9871 23.0967 13.75 22.5 13.75C21.9033 13.75 21.331 13.9871 20.909 14.409C20.4871 14.831 20.25 15.4033 20.25 16C20.25 16.5967 20.4871 17.169 20.909 17.591C21.331 18.0129 21.9033 18.25 22.5 18.25ZM27 22.75C27 22.1533 26.7629 21.581 26.341 21.159C25.919 20.7371 25.3467 20.5 24.75 20.5C24.1533 20.5 23.581 20.7371 23.159 21.159C22.7371 21.581 22.5 22.1533 22.5 22.75C22.5 23.3467 22.7371 23.919 23.159 24.341C23.581 24.7629 24.1533 25 24.75 25C25.3467 25 25.919 24.7629 26.341 24.341C26.7629 23.919 27 23.3467 27 22.75ZM27 13.75C27.5967 13.75 28.169 13.5129 28.591 13.091C29.0129 12.669 29.25 12.0967 29.25 11.5C29.25 10.9033 29.0129 10.331 28.591 9.90901C28.169 9.48705 27.5967 9.25 27 9.25C26.4033 9.25 25.831 9.48705 25.409 9.90901C24.9871 10.331 24.75 10.9033 24.75 11.5C24.75 12.0967 24.9871 12.669 25.409 13.091C25.831 13.5129 26.4033 13.75 27 13.75ZM31.5 18.25C31.5 17.6533 31.2629 17.081 30.841 16.659C30.419 16.2371 29.8467 16 29.25 16C28.6533 16 28.081 16.2371 27.659 16.659C27.2371 17.081 27 17.6533 27 18.25C27 18.8467 27.2371 19.419 27.659 19.841C28.081 20.2629 28.6533 20.5 29.25 20.5C29.8467 20.5 30.419 20.2629 30.841 19.841C31.2629 19.419 31.5 18.8467 31.5 18.25ZM33.75 16C34.3467 16 34.919 15.7629 35.341 15.341C35.7629 14.919 36 14.3467 36 13.75C36 13.1533 35.7629 12.581 35.341 12.159C34.919 11.7371 34.3467 11.5 33.75 11.5C33.1533 11.5 32.581 11.7371 32.159 12.159C31.7371 12.581 31.5 13.1533 31.5 13.75C31.5 14.3467 31.7371 14.919 32.159 15.341C32.581 15.7629 33.1533 16 33.75 16Z" fill="#0056A6"/>
</svg>
