<svg width="36" height="36" viewBox="0 0 36 36" fill="none" xmlns="http://www.w3.org/2000/svg">
<path d="M24.75 22.5C30.9656 22.5 36 17.4656 36 11.25C36 10.1742 35.8453 9.13359 35.5641 8.14219C35.3461 7.38281 34.4109 7.21406 33.8555 7.76953L28.4555 13.1695C28.2445 13.3805 27.9562 13.5 27.6609 13.5H23.625C23.0063 13.5 22.5 12.9937 22.5 12.375V8.33906C22.5 8.04375 22.6195 7.75547 22.8305 7.54453L28.2305 2.14453C28.7859 1.58906 28.6102 0.653906 27.8578 0.435937C26.8664 0.154687 25.8258 0 24.75 0C18.5344 0 13.5 5.03437 13.5 11.25C13.5 12.593 13.7391 13.8867 14.168 15.082L1.39922 27.8508C0.50625 28.7437 0 29.9602 0 31.2258C0 33.8625 2.1375 36 4.77422 36C6.03984 36 7.25625 35.4938 8.14922 34.6008L20.918 21.832C22.1133 22.268 23.407 22.5 24.75 22.5ZM5.625 28.6875C6.07255 28.6875 6.50178 28.8653 6.81824 29.1818C7.13471 29.4982 7.3125 29.9274 7.3125 30.375C7.3125 30.8226 7.13471 31.2518 6.81824 31.5682C6.50178 31.8847 6.07255 32.0625 5.625 32.0625C5.17745 32.0625 4.74823 31.8847 4.43176 31.5682C4.11529 31.2518 3.9375 30.8226 3.9375 30.375C3.9375 29.9274 4.11529 29.4982 4.43176 29.1818C4.74823 28.8653 5.17745 28.6875 5.625 28.6875Z" fill="#0056A6"/>
</svg>
