<svg width="36" height="36" viewBox="0 0 36 36" fill="none" xmlns="http://www.w3.org/2000/svg">
<path d="M5.52636 0.351309C4.85839 -0.169003 3.90917 -0.105722 3.30448 0.491934L0.491983 3.30443C-0.105674 3.90209 -0.168955 4.85131 0.344326 5.52631L5.96933 12.8388C6.28573 13.2537 6.78495 13.4997 7.30526 13.4997H11.1092L18.7732 21.1638C17.7396 23.2029 18.0701 25.7622 19.7787 27.4638L27.6537 35.3388C28.5326 36.2177 29.96 36.2177 30.8389 35.3388L35.3389 30.8388C36.2178 29.9599 36.2178 28.5326 35.3389 27.6536L27.4639 19.7787C25.7623 18.0771 23.2029 17.7396 21.1639 18.7732L13.4998 11.1091V7.30521C13.4998 6.77787 13.2537 6.28568 12.8389 5.96928L5.52636 0.351309ZM1.39901 27.8505C0.506045 28.7435 -0.000204756 29.9599 -0.000204756 31.2255C-0.000204756 33.8622 2.1373 35.9997 4.77401 35.9997C6.03964 35.9997 7.25605 35.4935 8.14901 34.6005L16.4318 26.3177C15.8834 24.8482 15.799 23.2521 16.1787 21.7404L11.8404 17.4021L1.39901 27.8505ZM35.9998 10.1247C35.9998 9.38646 35.9225 8.66928 35.7748 7.98021C35.606 7.19271 34.6428 6.98881 34.0732 7.55834L29.5803 12.0513C29.3693 12.2622 29.081 12.3818 28.7857 12.3818L24.7498 12.3747C24.131 12.3747 23.6248 11.8685 23.6248 11.2497V7.21381C23.6248 6.9185 23.7443 6.63022 23.9553 6.41928L28.4482 1.92631C29.0178 1.35678 28.8139 0.393497 28.0264 0.224747C27.3303 0.0770904 26.6131 -0.000253397 25.8748 -0.000253397C20.285 -0.000253397 15.7498 4.5349 15.7498 10.1247V10.181L21.7475 16.1787C24.2787 15.5388 27.0771 16.2138 29.06 18.1966L30.1639 19.3005C33.6092 17.6833 35.9998 14.1818 35.9998 10.1247ZM3.9373 30.3747C3.9373 29.9272 4.11509 29.498 4.43155 29.1815C4.74802 28.865 5.17724 28.6872 5.62479 28.6872C6.07235 28.6872 6.50157 28.865 6.81804 29.1815C7.13451 29.498 7.31229 29.9272 7.31229 30.3747C7.31229 30.8223 7.13451 31.2515 6.81804 31.568C6.50157 31.8845 6.07235 32.0622 5.62479 32.0622C5.17724 32.0622 4.74802 31.8845 4.43155 31.568C4.11509 31.2515 3.9373 30.8223 3.9373 30.3747Z" fill="white"/>
</svg>
