<svg width="36" height="30" viewBox="0 0 36 30" fill="none" xmlns="http://www.w3.org/2000/svg">
<path d="M10.35 3.29998H18.45C18.6975 3.29998 18.9 3.50248 18.9 3.74998V5.99998H9.9V3.74998C9.9 3.50248 10.1025 3.29998 10.35 3.29998ZM7.2 3.74998V5.99998H3.6C1.61437 5.99998 0 7.61435 0 9.59998V15H10.8H19.8H20.2612C22.0781 12.8006 24.8231 11.4 27.9 11.4C28.2037 11.4 28.5019 11.4112 28.8 11.4394V9.59998C28.8 7.61435 27.1856 5.99998 25.2 5.99998H21.6V3.74998C21.6 2.01185 20.1881 0.599976 18.45 0.599976H10.35C8.61187 0.599976 7.2 2.01185 7.2 3.74998ZM18 20.4H12.6C11.6044 20.4 10.8 19.5956 10.8 18.6V16.8H0V24C0 25.9856 1.61437 27.6 3.6 27.6H20.2612C18.8494 25.89 18 23.6906 18 21.3C18 20.9962 18.0112 20.6981 18.0394 20.4H18ZM36 21.3C36 19.1517 35.1466 17.0915 33.6276 15.5724C32.1085 14.0534 30.0483 13.2 27.9 13.2C25.7517 13.2 23.6915 14.0534 22.1724 15.5724C20.6534 17.0915 19.8 19.1517 19.8 21.3C19.8 23.4482 20.6534 25.5085 22.1724 27.0275C23.6915 28.5466 25.7517 29.4 27.9 29.4C30.0483 29.4 32.1085 28.5466 33.6276 27.0275C35.1466 25.5085 36 23.4482 36 21.3ZM27.9 16.8C28.395 16.8 28.8 17.205 28.8 17.7V20.4H30.6C31.095 20.4 31.5 20.805 31.5 21.3C31.5 21.795 31.095 22.2 30.6 22.2H27.9C27.405 22.2 27 21.795 27 21.3V17.7C27 17.205 27.405 16.8 27.9 16.8Z" fill="#0056A6"/>
</svg>
