<svg width="32" height="36" viewBox="0 0 32 36" fill="none" xmlns="http://www.w3.org/2000/svg">
<path d="M9.75625 1.24453C10.1359 0.478125 10.9164 0 11.7672 0H20.2328C21.0836 0 21.8641 0.478125 22.2437 1.24453L22.75 2.25H29.5C30.7445 2.25 31.75 3.25547 31.75 4.5C31.75 5.74453 30.7445 6.75 29.5 6.75H2.5C1.25547 6.75 0.25 5.74453 0.25 4.5C0.25 3.25547 1.25547 2.25 2.5 2.25H9.25L9.75625 1.24453ZM2.5 9H29.5V31.5C29.5 33.982 27.482 36 25 36H7C4.51797 36 2.5 33.982 2.5 31.5V9ZM9.25 13.5C8.63125 13.5 8.125 14.0063 8.125 14.625V30.375C8.125 30.9937 8.63125 31.5 9.25 31.5C9.86875 31.5 10.375 30.9937 10.375 30.375V14.625C10.375 14.0063 9.86875 13.5 9.25 13.5ZM16 13.5C15.3813 13.5 14.875 14.0063 14.875 14.625V30.375C14.875 30.9937 15.3813 31.5 16 31.5C16.6187 31.5 17.125 30.9937 17.125 30.375V14.625C17.125 14.0063 16.6187 13.5 16 13.5ZM22.75 13.5C22.1313 13.5 21.625 14.0063 21.625 14.625V30.375C21.625 30.9937 22.1313 31.5 22.75 31.5C23.3687 31.5 23.875 30.9937 23.875 30.375V14.625C23.875 14.0063 23.3687 13.5 22.75 13.5Z" fill="#0056A6"/>
</svg>
