<svg width="21" height="22" viewBox="0 0 21 22" fill="none" xmlns="http://www.w3.org/2000/svg">
<path d="M9.1125 8.92344C8.83949 9.10595 8.60511 9.34046 8.42273 9.61355C8.24035 9.88665 8.11355 10.193 8.04957 10.5151C7.92034 11.1656 8.05483 11.8408 8.42344 12.3922C8.79205 12.9435 9.36459 13.3259 10.0151 13.4551C10.6656 13.5843 11.3408 13.4499 11.8922 13.0812C12.4435 12.7126 12.8259 12.1401 12.9551 11.4896C13.0843 10.8391 12.9499 10.1639 12.5812 9.6125C12.2126 9.06114 11.6401 8.67879 10.9896 8.54957C10.3391 8.42034 9.66386 8.55483 9.1125 8.92344ZM15.7828 5.71719C15.5391 5.47344 15.2437 5.28125 14.9203 5.15469C14.0719 4.82188 12.2203 4.83594 11.025 4.85C10.8328 4.85 10.6547 4.85469 10.5 4.85469C10.3453 4.85469 10.1625 4.85469 9.96563 4.85C8.77031 4.83594 6.92812 4.81719 6.07969 5.15469C5.75625 5.28125 5.46563 5.47344 5.21719 5.71719C4.96875 5.96094 4.78125 6.25625 4.65469 6.57969C4.32188 7.42812 4.34063 9.28437 4.35 10.4797C4.35 10.6719 4.35469 10.85 4.35469 11C4.35469 11.15 4.35469 11.3281 4.35 11.5203C4.34063 12.7156 4.32188 14.5719 4.65469 15.4203C4.78125 15.7437 4.97344 16.0344 5.21719 16.2828C5.46094 16.5312 5.75625 16.7188 6.07969 16.8453C6.92812 17.1781 8.77969 17.1641 9.975 17.15C10.1672 17.15 10.3453 17.1453 10.5 17.1453C10.6547 17.1453 10.8375 17.1453 11.0344 17.15C12.2297 17.1641 14.0719 17.1828 14.9203 16.8453C15.2437 16.7188 15.5344 16.5266 15.7828 16.2828C16.0312 16.0391 16.2188 15.7437 16.3453 15.4203C16.6828 14.5766 16.6641 12.7297 16.65 11.5297C16.65 11.3328 16.6453 11.15 16.6453 10.9953C16.6453 10.8406 16.6453 10.6625 16.65 10.4609C16.6641 9.26562 16.6828 7.41875 16.3453 6.57031C16.2188 6.24687 16.0266 5.95625 15.7828 5.70781V5.71719ZM12.6375 7.80313C13.4854 8.37003 14.0733 9.25052 14.272 10.2509C14.4706 11.2513 14.2638 12.2896 13.6969 13.1375C13.4162 13.5573 13.0555 13.9177 12.6355 14.1982C12.2156 14.4786 11.7444 14.6736 11.2491 14.772C10.2487 14.9706 9.21036 14.7638 8.3625 14.1969C7.51464 13.6306 6.92645 12.7507 6.72734 11.7507C6.52823 10.7508 6.7345 9.71271 7.30078 8.86484C7.86706 8.01698 8.74696 7.4288 9.74691 7.22968C10.7469 7.03057 11.7849 7.23685 12.6328 7.80313H12.6375ZM14.0062 7.74219C13.8609 7.64375 13.7438 7.50312 13.6734 7.33906C13.6031 7.175 13.5891 6.99688 13.6219 6.81875C13.6547 6.64062 13.7437 6.48594 13.8656 6.35938C13.9875 6.23281 14.1516 6.14844 14.325 6.11563C14.4984 6.08281 14.6813 6.09687 14.8453 6.16719C15.0094 6.2375 15.15 6.35 15.2484 6.49531C15.3469 6.64062 15.3984 6.81406 15.3984 6.99219C15.3984 7.10938 15.375 7.22656 15.3328 7.33438C15.2906 7.44219 15.2203 7.54063 15.1406 7.625C15.0609 7.70937 14.9578 7.775 14.85 7.82187C14.7422 7.86875 14.625 7.89219 14.5078 7.89219C14.3297 7.89219 14.1562 7.84062 14.0109 7.74219H14.0062ZM21 3.5C21 1.84531 19.6547 0.5 18 0.5H3C1.34531 0.5 0 1.84531 0 3.5V18.5C0 20.1547 1.34531 21.5 3 21.5H18C19.6547 21.5 21 20.1547 21 18.5V3.5ZM16.7344 17.2344C15.8578 18.1109 14.7937 18.3875 13.5938 18.4484C12.3562 18.5187 8.64375 18.5187 7.40625 18.4484C6.20625 18.3875 5.14219 18.1109 4.26562 17.2344C3.38906 16.3578 3.1125 15.2937 3.05625 14.0938C2.98594 12.8562 2.98594 9.14375 3.05625 7.90625C3.11719 6.70625 3.38906 5.64219 4.26562 4.76562C5.14219 3.88906 6.21094 3.6125 7.40625 3.55625C8.64375 3.48594 12.3562 3.48594 13.5938 3.55625C14.7937 3.61719 15.8578 3.88906 16.7344 4.76562C17.6109 5.64219 17.8875 6.70625 17.9437 7.90625C18.0141 9.13906 18.0141 12.8469 17.9437 14.0891C17.8828 15.2891 17.6109 16.3531 16.7344 17.2297V17.2344Z" fill="white"/>
</svg>
